<?xml version="1.0" encoding="UTF-8"?>
<svg id="Layer_1" data-name="Layer 1" xmlns="http://www.w3.org/2000/svg" viewBox="0 0 773.25 773.25">
  <defs>
    <style>
      .cls-1 {
        fill: #8ca787;
        font-family: NotoSerif-Regular, 'Noto Serif';
        font-size: 73.38px;
        font-variation-settings: 'wght' 400, 'wdth' 100;
      }

      .cls-2 {
        font-family: Manrope-Light, Manrope;
        font-size: 26.16px;
        font-variation-settings: 'wght' 300;
        font-weight: 300;
      }

      .cls-2, .cls-3, .cls-4 {
        fill: #667c8c;
      }

      .cls-3 {
        font-family: Manrope-Regular, Manrope;
        font-size: 31.02px;
        font-variation-settings: 'wght' 400;
      }

      .cls-5 {
        letter-spacing: 0em;
      }

      .cls-6 {
        letter-spacing: 0em;
      }

      .cls-7 {
        letter-spacing: -.06em;
      }

      .cls-8 {
        letter-spacing: -.02em;
      }

      .cls-9 {
        letter-spacing: -.02em;
      }

      .cls-10 {
        letter-spacing: -.02em;
      }

      .cls-11 {
        letter-spacing: -.04em;
      }

      .cls-12 {
        letter-spacing: -.03em;
      }

      .cls-13 {
        letter-spacing: -.03em;
      }

      .cls-14 {
        letter-spacing: 0em;
      }

      .cls-15 {
        letter-spacing: 0em;
      }
    </style>
  </defs>
  <path class="cls-4" d="M450.68,428.59c-8.25-32.58-14.44-62.42.32-69.53,2.52-1.21,5.01-2.28,7.42-3.31,6.27-2.68,12.19-5.22,17.71-9.92l.19-.15c3.65-2.54,6.38-6.83,6.63-10.45.16-2.19-.55-4-2.17-5.5-6.33-5.54-5.48-9.71-4.05-13.5.31-.82.6-1.59.57-2.11-.03-.54-.53-1.63-.98-2.6-1.61-3.49-4.32-9.33,1.84-15.77,4.24-4.45,6.2-7.73,5.98-10.03-.25-2.6-3.61-5-7.88-8.03-8-5.7-18.95-13.5-23.82-31.49-5.45-20.12-17.51-32.99-37.97-40.5-14.99-5.5-30.03-7.24-43.5-5.03-16.15,2.66-29.93,10.84-40.96,24.32-12.33,15.06-17.56,33.11-15.13,52.2,3.03,23.83,18.23,48.38,39.66,64.06,13.29,9.72,14.57,42.87,2.68,69.54l-4.57-2.04c10.63-23.86,10.1-55.29-1.07-63.47-22.5-16.47-38.46-42.32-41.66-67.46-2.61-20.48,3-39.85,16.22-56,21.55-26.33,54.38-33.92,90.05-20.82,22.12,8.12,35.17,22.06,41.08,43.88,4.4,16.26,14.51,23.46,21.9,28.72,5.3,3.78,9.49,6.76,9.95,11.63.37,3.94-1.89,8.25-7.34,13.96-3.8,3.98-2.46,6.87-.92,10.22.7,1.51,1.36,2.94,1.43,4.46.07,1.55-.44,2.91-.89,4.11-.93,2.47-1.6,4.25,2.72,8.04,2.78,2.59,4.07,5.88,3.81,9.57-.42,5.84-4.64,11.29-8.67,14.13-6.08,5.14-12.59,7.93-18.89,10.63-2.36,1.01-4.8,2.06-7.22,3.22-12.3,5.93-3.12,42.15,2.36,63.8l-4.85,1.23Z"/>
  <path class="cls-4" d="M304.94,386.33c-1.58-25.82-12.71-25.23-24.49-24.61-6.16.33-12.52.66-16.84-3.35-2.8-2.61-4.33-6.69-4.65-12.45-3.06-1.79-7.17-5.82-6.52-10-.12-.69-.42-1.25-.62-1.48-7.15.97-11.58.04-13.96-2.92-3.5-4.37-.96-11.23,1.73-18.5,2.2-5.96,4.7-12.7,2.88-16.35-17.87-29.62-6.99-54.79,9.17-68.47,18.5-15.67,50.65-21.61,73.78-1.76l-3.26,3.79c-21.04-18.05-50.37-12.56-67.29,1.78-22.26,18.85-18.77,44.46-8.07,62.14l.08.14c2.9,5.59.11,13.15-2.59,20.45-1.99,5.38-4.25,11.48-2.52,13.64.64.8,2.7,1.99,9.31,1.11,1.26-.25,2.52.04,3.59.81,1.82,1.31,2.64,3.69,2.81,5.46l.04.43-.11.42c-.37,1.46,3.04,4.74,4.82,5.36l1.66.57.03,1.75c.1,5.16,1.12,8.57,3.12,10.43,2.76,2.57,7.59,2.31,13.17,2.02,11.76-.62,27.86-1.48,29.74,29.3l-4.99.3Z"/>
  <text class="cls-1" transform="translate(62.28 503.06)"><tspan x="0" y="0">Σάκης Πα</tspan><tspan class="cls-15" x="333.97" y="0">π</tspan><tspan class="cls-5" x="380.79" y="0">αλ</tspan><tspan class="cls-7" x="470.46" y="0">ί</tspan><tspan class="cls-15" x="487.05" y="0">τσ</tspan><tspan class="cls-10" x="566.45" y="0">α</tspan><tspan x="611.87" y="0">ς</tspan></text>
  <text class="cls-3" transform="translate(153.01 554.41)"><tspan x="0" y="0">Ψυ</tspan><tspan class="cls-8" x="40.23" y="0">χ</tspan><tspan class="cls-11" x="55.96" y="0">ο</tspan><tspan class="cls-13" x="73.06" y="0">λ</tspan><tspan class="cls-9" x="88.51" y="0">όγ</tspan><tspan x="121.37" y="0">ος – Ψυ</tspan><tspan class="cls-9" x="226.27" y="0">χ</tspan><tspan x="242" y="0">οθεραπευτ</tspan><tspan class="cls-14" x="403.98" y="0">ή</tspan><tspan x="422.3" y="0">ς</tspan></text>
  <text class="cls-2" transform="translate(220.93 596.92)"><tspan x="0" y="0">Πα</tspan><tspan class="cls-12" x="33.56" y="0">ι</tspan><tspan x="41.64" y="0">δ</tspan><tspan class="cls-12" x="56.89" y="0">ι</tspan><tspan class="cls-6" x="64.97" y="0">ά • Έφηβοι • Ενήλικες</tspan></text>
  <path class="cls-4" d="M346.4,303.8c-10.12,0-21.02-3.64-29.09-7.09-11.74-5.03-21.82-11.47-25.73-14.58-.12-.09-.25-.19-.39-.28-.01.72.01,1.44.07,2.14v.15c.19,2.02.43,4.79-1.25,6.83l-.35.35c-1.5,1.22-3.29,1.55-5.04.94-3-1.05-5.28-4.84-5.97-8.04l-.09-.4.04-.4c.5-4.63,2.88-6.55,4.79-7.35,1.15-.48,2.38-.65,3.6-.63.18-.79.4-1.56.64-2.33-1.37-.47-2.72-.97-4.06-1.48-3.97-1.49-7.8-2.93-11.62-3.15.02.04.04.08.06.12l.13.34c2.58,8.84-.45,11.78-2.49,12.74-3.09,1.47-7.39-.14-9.8-3.66-2.1-3.07-2.74-7.87,1.75-12.12l.27-.26.34-.17c.5-.25,1.01-.47,1.51-.67-2.05-2.88-4.2-6.18-4.8-10.91-1.12-5.74.65-12.21,4.51-16.5,2.64-2.93,5.86-4.4,9.11-4.18,4.06-.16,8.05,2.82,10.48,7.82,1.06,2.19,1.85,4.93,1.97,7.81.26-.39.54-.77.85-1.15l.3-.37.41-.23c5.14-2.89,12.69-1.02,15.84,3.92,1.07,1.67,3.75,7.31-3.35,13.49,2.62,1.9,4.49,3.66,4.68,5.94.08.95-.12,2.35-1.51,3.69l-.55.53-.75.13c-2.9.5-5.72.27-8.47-.33-.22.69-.41,1.39-.58,2.1,1.15.5,2.13,1.09,2.83,1.65,8.27,6.56,38.64,24.22,58.12,19.94,2.62-.57,4.91-1.51,6.91-2.83-2.38-1.19-4.25-2.81-5.55-4.82-2.16-3.34-2.57-7.3-1.11-10.61,1.31-2.98,4.02-5.01,7.42-5.58,3.38-.56,6.91,1.04,9.23,4.18,2.51,3.41,2.92,7.8,1.07,11.46-.48.95-.99,1.84-1.55,2.69,11.04.84,25.12-4.34,33.18-12.3,6.87-6.77,11.07-15.03,12.91-22.9-12.38,5.02-26.29,7.26-36.82-1.59-6.34-5.33-9.15-13.52-7.32-21.39,1.85-7.96,7.87-13.94,16.12-15.98,12.69-3.15,26.04,4.03,31.72,17.07,1.76,4.04,2.52,8.7,2.39,13.6,5.07-2.64,9.7-5.49,13.43-7.79l1.42-.88c21.67-13.3,37.4-35.12,40.09-55.59.81-6.14.66-20.58-5.02-35.78-4.5-12.04-13.96-27.89-33.52-35.09l1.73-4.69c16.89,6.21,29.5,19.37,36.48,38.03,6.02,16.11,6.16,31.58,5.29,38.18-2.92,22.24-19.18,44.93-42.43,59.21l-1.42.87c-4.31,2.66-10.12,6.24-16.62,9.36-1.67,10.32-6.94,21.04-14.93,28.92-9.42,9.29-25.48,15.01-38.2,13.62-.8-.09-1.57-.2-2.31-.34-3.12,2.89-6.97,4.85-11.53,5.85-2.4.53-4.92.76-7.48.76ZM361.81,279.21c-.17,0-.34.01-.51.04-1.76.29-3.02,1.22-3.67,2.67-.77,1.73-.48,3.99.74,5.88,1.24,1.92,3.28,3.11,5.43,3.83.94-1.16,1.78-2.46,2.51-3.92,1.01-2,.77-4.33-.64-6.24-1.04-1.41-2.51-2.26-3.86-2.26ZM283.63,283.53c.58,2.1,2.02,3.86,2.65,4,.22-.66.09-2.13.02-2.96v-.15c-.13-1.3-.14-2.63-.05-3.97-.33.03-.64.1-.92.22-.34.14-1.35.56-1.7,2.86ZM264.77,269.79c-2.17,2.24-1.65,4.17-.8,5.41,1.07,1.57,2.88,2.27,3.53,1.96.52-.24,1.15-2.19-.12-6.64-.23-.49-.49-.97-.76-1.44-.62.19-1.23.42-1.85.71ZM294.47,269.78c1.19.21,2.37.31,3.54.29-.63-.58-1.57-1.28-2.51-1.94-.36.53-.71,1.08-1.03,1.65ZM270.93,263.44c5.1,0,9.94,1.82,14.4,3.5,1.41.53,2.81,1.06,4.18,1.52.56-1.12,1.19-2.18,1.88-3.17-3.49-2.49-6.83-5.34-7.82-9.05-.57,1.22-1.34,2.4-2.33,3.51l-.22.24-.27.18c-5.86,3.85-8.91.67-9.7-.4-2.3-3.09-1.94-9.12.67-11.32,1.4-1.18,3.69-1.44,5.66.63l-3.59,3.4c.38.13.98.02,1.21-.26-.53.64-.79,3.61.13,4.63.37.41,1.53-.03,2.61-.69,3.3-3.95,2.51-9.41.79-12.94-1.52-3.12-3.89-5.15-5.86-5.01h-.2s-.19,0-.19,0c-2.29-.2-4.19,1.49-5.12,2.53-2.82,3.13-4.15,8.07-3.31,12.27l.03.18c.49,3.92,2.41,6.6,4.45,9.44.22.3.43.6.65.91.66-.06,1.32-.09,1.97-.09ZM289.4,251.25c-.88,1.19-1.23,2.26-1.09,3.28.35,2.42,3.41,4.88,6.45,7.02,2.3-1.76,5.33-4.83,3.41-7.84-1.51-2.36-5.65-3.89-8.77-2.46ZM393.31,222.77c-1.6,0-3.22.19-4.82.59-6.38,1.58-11.03,6.16-12.45,12.26-1.42,6.11.7,12.25,5.67,16.43,9.5,7.98,22.72,5,34.55-.36.49-5.35-.16-10.27-1.83-14.11-3.97-9.12-12.38-14.8-21.12-14.8ZM273.63,252.4h0Z"/>
</svg>