<?xml version="1.0" encoding="UTF-8"?>
<svg id="Layer_1" data-name="Layer 1" xmlns="http://www.w3.org/2000/svg" viewBox="0 0 773.25 773.25">
  <defs>
    <style>
      .cls-1 {
        fill: #8ca787;
      }

      .cls-2 {
        fill: #8ca787;
        font-family: ZonaPro-Bold, 'Zona Pro';
        font-size: 74.35px;
        font-weight: 700;
      }

      .cls-3 {
        letter-spacing: 0em;
      }

      .cls-4 {
        font-family: Manrope-Regular, Manrope;
        font-size: 35.63px;
        font-variation-settings: 'wght' 400;
      }

      .cls-4, .cls-5, .cls-6 {
        fill: #667c8c;
      }

      .cls-7 {
        letter-spacing: -.02em;
      }

      .cls-8 {
        letter-spacing: -.02em;
      }

      .cls-9 {
        letter-spacing: -.05em;
      }

      .cls-10 {
        letter-spacing: -.04em;
      }

      .cls-11 {
        letter-spacing: -.03em;
      }

      .cls-12 {
        letter-spacing: 0em;
      }

      .cls-13 {
        letter-spacing: 0em;
      }

      .cls-6 {
        font-family: ZonaPro, 'Zona Pro';
        font-size: 83.1px;
      }
    </style>
  </defs>
  <g>
    <path class="cls-5" d="M318.34,273.2h-45.46c-2.96,0-4.92,3.06-3.69,5.75l22.18,48.57c.4.87.48,1.86.22,2.79l-18.32,65.21c-.73,2.59,1.22,5.16,3.91,5.16h41.18c2.25,0,4.06-1.82,4.06-4.07l-.14-94.82.12-24.51c.01-2.25-1.81-4.08-4.06-4.08Z"/>
    <path class="cls-5" d="M453.82,273.2h41.65c2.96,0,4.92,3.06,3.69,5.75l-22.18,48.57c-.4.87-.48,1.86-.22,2.79l18.32,65.21c.73,2.59-1.22,5.16-3.91,5.16h-36.81c-2.25,0-4.06-1.82-4.06-4.07l.14-94.82-.13-25.07c0-1.94,1.56-3.52,3.5-3.52Z"/>
    <circle class="cls-1" cx="383.07" cy="166.12" r="23.36"/>
    <path class="cls-1" d="M387.81,200.73h0s-.03,0-.03,0h0s.06,0,.06,0h0s-.03,0-.03,0h0c79.25,0,105.28,35.53,116.01,50.42,1.94,2.69.04,6.45-3.28,6.45h-47.18c-1.69,0-3.19-1.04-3.79-2.62-3.54-9.29-11.21-40.12-61.75-40.12h0s0,0,0,0h.03,0s0,0,0,0h-.06s0,0,0,0h.03s0,0,0,0h0s-3.47,0-3.47,0h0s0,0,0,0h.03,0s0,0,0,0h-.06s0,0,0,0h0s.03,0,.03,0h0s0,0,0,0c-50.54,0-58.22,30.83-61.75,40.12-.6,1.58-2.11,2.62-3.79,2.62h-47.18c-3.32,0-5.22-3.76-3.28-6.45,10.73-14.9,36.76-50.42,116.01-50.42h0s-.03,0-.03,0h0s.06,0,.06,0h0s-.03,0-.03,0h0s3.47,0,3.47,0Z"/>
  </g>
  <text class="cls-2" transform="translate(118.58 574.56)"><tspan x="0" y="0" xml:space="preserve"> ΠΑΠΑΛI</tspan><tspan class="cls-13" x="327.58" y="0">Τ</tspan><tspan x="375.91" y="0">ΣΑΣ</tspan></text>
  <text class="cls-6" transform="translate(142.18 503.93)"><tspan class="cls-9" x="0" y="0">ΑΘ</tspan><tspan x="124.4" y="0">ΑΝΑΣΙΟΣ</tspan></text>
  <text class="cls-4" transform="translate(143.97 621.41)"><tspan x="0" y="0">Ψυ</tspan><tspan class="cls-8" x="46.21" y="0">χ</tspan><tspan class="cls-10" x="64.28" y="0">ο</tspan><tspan class="cls-11" x="83.93" y="0">λ</tspan><tspan class="cls-8" x="101.67" y="0">όγ</tspan><tspan x="139.42" y="0">ος – Ψυ</tspan><tspan class="cls-7" x="259.93" y="0">χ</tspan><tspan class="cls-3" x="277.99" y="0">οθεραπευτ</tspan><tspan class="cls-12" x="464.07" y="0">ή</tspan><tspan x="485.11" y="0">ς</tspan></text>
</svg>