<?xml version="1.0" encoding="UTF-8"?>
<svg id="Layer_1" data-name="Layer 1" xmlns="http://www.w3.org/2000/svg" viewBox="0 0 773.25 773.25">
  <defs>
    <style>
      .cls-1 {
        font-family: AktivGrotesk-Bold, 'Aktiv Grotesk';
        font-size: 66.25px;
        font-weight: 700;
      }

      .cls-1, .cls-2 {
        fill: #8ca787;
      }

      .cls-3 {
        font-family: AktivGrotesk-ThinItalic, 'Aktiv Grotesk';
        font-size: 62.25px;
        font-style: italic;
        font-weight: 200;
      }

      .cls-3, .cls-4 {
        fill: #667c8c;
      }

      .cls-5 {
        fill: #fff;
      }

      .cls-6 {
        letter-spacing: 0em;
      }

      .cls-7 {
        letter-spacing: 0em;
      }

      .cls-8 {
        letter-spacing: -.02em;
      }

      .cls-9 {
        letter-spacing: -.02em;
      }

      .cls-10 {
        letter-spacing: -.03em;
      }

      .cls-11 {
        letter-spacing: -.01em;
      }

      .cls-12 {
        letter-spacing: 0em;
      }

      .cls-13 {
        letter-spacing: 0em;
      }

      .cls-14 {
        letter-spacing: 0em;
      }
    </style>
  </defs>
  <path class="cls-2" d="M501.89,387.57c17.35,0,33.97-15.25,33.16-33.16-.8-17.97-14.57-33.16-33.16-33.16-17.35,0-33.97,15.25-33.16,33.16.8,17.97,14.57,33.16,33.16,33.16h0Z"/>
  <path class="cls-2" d="M442.61,313.84c11.93,0,23.35-10.49,22.8-22.8-.55-12.35-10.02-22.8-22.8-22.8-11.93,0-23.35,10.49-22.8,22.8s10.02,22.8,22.8,22.8h0Z"/>
  <path class="cls-2" d="M367.28,294.64c7.47,0,13.82-6.35,13.82-13.82s-6.32-13.82-13.82-13.82-13.82,6.35-13.82,13.82,6.32,13.82,13.82,13.82h0Z"/>
  <text class="cls-3" transform="translate(193.32 439.12)"><tspan class="cls-8" x="0" y="0">Σ</tspan><tspan x="33.68" y="0">άκης </tspan></text>
  <text class="cls-1" transform="translate(188.79 497.53)"><tspan x="0" y="0">Π</tspan><tspan class="cls-6" x="47.96" y="0">α</tspan><tspan class="cls-9" x="93.4" y="0">π</tspan><tspan class="cls-14" x="136.66" y="0">α</tspan><tspan class="cls-11" x="182.57" y="0">λ</tspan><tspan class="cls-10" x="219.93" y="0">ί</tspan><tspan class="cls-12" x="239.01" y="0">τ</tspan><tspan x="273.26" y="0">σ</tspan><tspan class="cls-13" x="314.26" y="0">α</tspan><tspan class="cls-7" x="359.05" y="0">ς</tspan></text>
  <path class="cls-4" d="M391.28,414.38c-1.05,0-2.1,0-3.15-.02l.03-1.97c38.94.55,76.08-9.03,107.42-27.69,16.28-9.7,25.14-18.76,26.32-26.94.27-1.86.13-3.68-.42-5.46-27,16.7-62.07,20-91.64,20.72-10.78-.17-17.81-4-19.33-10.51-1.7-7.3,4.07-15.75,14.36-21.03,26.59-14.32,71.82-16.56,94.19,3.15l.07.07c1.4,1.51,2.5,3.07,3.3,4.67,6.86-4.48,13.14-9.89,18.59-16.41,3.76-4.68,8.36-11.94,8.87-19.84.57-5.91-1.85-11.55-6.82-15.9-1.52-1.33-3.21-2.46-5-3.38-1.3,1.75-2.9,3.26-4.71,4.41-3.43,2.18-7.19,2.82-10.88,1.86-2.9-.71-4.98-2.89-5.05-5.3-.03-1.09.36-3.75,4.63-5.07,4.99-1.17,10.42-.56,15.33,1.57,1.06-1.74,1.82-3.67,2.18-5.64,1.1-5.26.01-11.17-3.06-16.66-3.53-6.39-9.52-12.21-18.29-17.8-32.61-19.48-61.46-27.47-86.02-23.86.7.23,1.39.47,2.08.72,4.49,1.93,7.96,4.25,10.37,6.91,3.06,3.13,4.4,7.12,3.74,11.2-.77,4.78-4.27,9.29-9.13,11.79-8.47,4.71-19.36,6.28-28.38,4.07-4.87-1.26-8.69-3.84-10.76-7.26-1.99-3.43-2.32-7-1-10.62,2.5-6.81,10.39-12.29,17.12-14.7,2.56-.97,5.17-1.8,7.83-2.48-40.63-10.77-88.23-1.15-123.9,25.65-12.18,9.31-25.76,22.99-28.09,38.91,1.31-.93,2.65-1.78,4.02-2.53,12.66-7.07,28.37-8.65,43.1-4.33,13.66,4.19,21.99,14.06,21.22,25.14-.76,11-10.36,19.56-24.45,21.82-2.08.37-4.18.54-6.28.54-18.17,0-36.32-13.14-39.37-29.77-.4-2.2-.58-4.37-.56-6.5-8.79,7.8-14.89,19.78-12.08,32.12,3.92,19.08,23.83,29.91,39.7,33.39.79.19,1.64.39,2.57.62,10.52,2.59,32.4,7.98,64.22,2.99l.31,1.95c-32.21,5.05-54.35-.4-64.99-3.02-.93-.23-1.77-.44-2.54-.62-16.43-3.61-37.08-14.91-41.19-34.9-3.13-13.76,4.12-27.07,14.14-35.24,1.56-17.4,16.09-32.22,29.08-42.15,37.16-27.92,87.12-37.42,129.11-24.99,25.83-5.13,56.42,2.72,91.16,23.47,9.09,5.78,15.29,11.84,18.98,18.52,3.31,5.91,4.47,12.3,3.28,18-.4,2.16-1.2,4.24-2.31,6.12,1.84.97,3.59,2.16,5.19,3.56,5.39,4.71,8.12,11.1,7.49,17.54-.53,8.39-5.36,16.02-9.31,20.94-5.67,6.78-12.2,12.38-19.33,17,.77,2.21.99,4.49.65,6.83-1.27,8.8-10.44,18.34-27.26,28.36-30.8,18.34-67.15,27.99-105.3,27.99ZM471.41,332.16c-15.13,0-31.32,3.34-45.64,11.05-9.34,4.79-14.83,12.54-13.36,18.84,1.3,5.56,7.64,8.84,17.4,8.99,29.38-.71,64.27-3.99,90.92-20.61-.71-1.49-1.73-2.95-3.03-4.36-9.76-8.57-27.17-13.91-46.29-13.91ZM271.75,294.19c-.17,2.56-.03,5.18.46,7.85,3.22,17.57,24.3,31,43.38,27.64,13.17-2.11,22.12-9.97,22.81-20.01.7-10.14-7.08-19.21-19.82-23.11-14.22-4.17-29.38-2.65-41.58,4.17-1.8.99-3.57,2.16-5.25,3.47ZM527.07,291.12c-1.55,0-3.07.17-4.54.51-2.03.63-3.21,1.77-3.18,3.11.04,1.5,1.54,2.95,3.57,3.44,3.99,1.04,7.28-.3,9.34-1.61,1.47-.94,2.8-2.17,3.92-3.59-2.94-1.21-6.07-1.86-9.11-1.86ZM427.97,228.08c-3.81.78-7.51,1.86-11.1,3.22-6.1,2.18-13.68,7.34-15.95,13.52-1.11,3.04-.83,6.05.84,8.93,2.43,4,7.02,5.7,9.55,6.35,8.42,2.06,19,.53,26.97-3.89,4.34-2.23,7.43-6.19,8.11-10.36.57-3.49-.55-6.79-3.23-9.53-2.24-2.48-5.48-4.64-9.65-6.43-1.83-.65-3.68-1.26-5.54-1.82Z"/>
  <path class="cls-5" d="M471.92,369.44l-.32-1.95c26.2-4.34,46.09-12.76,60.82-25.75l1.31,1.48c-15.01,13.24-35.23,21.82-61.8,26.22Z"/>
  <path class="cls-5" d="M496.58,386.39l-1.01-1.7c16.28-9.7,25.14-18.76,26.32-26.94.59-4.1-.82-8.03-4.19-11.69-11.88-10.45-28.44-13.24-40.25-13.74l.08-1.97c12.14.52,29.19,3.41,41.51,14.26l.07.07c3.82,4.13,5.41,8.62,4.73,13.35-1.27,8.8-10.44,18.34-27.26,28.36Z"/>
</svg>