<?xml version="1.0" encoding="UTF-8"?>
<svg id="Layer_1" data-name="Layer 1" xmlns="http://www.w3.org/2000/svg" viewBox="0 0 773.25 773.25">
  <defs>
    <style>
      .cls-1 {
        font-family: Manrope-Regular, Manrope;
        font-size: 31.02px;
        font-variation-settings: 'wght' 400;
      }

      .cls-1, .cls-2 {
        fill: #667c8c;
      }

      .cls-3, .cls-4 {
        fill: #8ca787;
      }

      .cls-4, .cls-2 {
        font-family: AvenirNext-MediumItalic, 'Avenir Next';
        font-size: 73.38px;
        font-style: italic;
        font-weight: 500;
      }

      .cls-5 {
        letter-spacing: -.02em;
      }

      .cls-6 {
        letter-spacing: -.02em;
      }

      .cls-7 {
        letter-spacing: -.04em;
      }

      .cls-8 {
        letter-spacing: -.03em;
      }

      .cls-9 {
        letter-spacing: 0em;
      }
    </style>
  </defs>
  <path class="cls-3" d="M428.2,447.24c-6.79-26.81-11.88-51.35.26-57.21,2.07-1,4.12-1.88,6.1-2.73,5.16-2.21,10.03-4.29,14.57-8.16l.16-.12c3-2.09,5.25-5.62,5.46-8.6.13-1.81-.46-3.29-1.79-4.53-5.21-4.56-4.51-7.99-3.33-11.11.25-.67.49-1.31.47-1.74-.02-.45-.44-1.35-.8-2.14-1.33-2.87-3.55-7.68,1.51-12.98,3.49-3.66,5.1-6.36,4.92-8.25-.2-2.14-2.97-4.11-6.48-6.61-6.58-4.69-15.59-11.11-19.6-25.91-4.48-16.55-14.41-27.14-31.24-33.32-12.33-4.53-24.71-5.96-35.79-4.13-13.29,2.18-24.63,8.92-33.7,20.01-10.14,12.39-14.45,27.24-12.45,42.95,2.49,19.61,15,39.8,32.63,52.71,10.93,8,11.98,35.27,2.21,57.21l-3.76-1.67c8.75-19.63,8.31-45.49-.88-52.22-18.51-13.55-31.65-34.82-34.28-55.51-2.14-16.85,2.47-32.79,13.35-46.07,17.73-21.66,44.74-27.91,74.09-17.13,18.2,6.68,28.94,18.15,33.8,36.11,3.62,13.38,11.94,19.31,18.01,23.63,4.36,3.11,7.81,5.56,8.19,9.57.31,3.24-1.56,6.78-6.04,11.48-3.13,3.28-2.03,5.65-.75,8.41.58,1.24,1.12,2.42,1.18,3.67.06,1.28-.36,2.39-.73,3.38-.76,2.03-1.32,3.5,2.24,6.61,2.28,2.13,3.35,4.84,3.13,7.87-.34,4.81-3.81,9.29-7.13,11.63-5,4.23-10.36,6.52-15.54,8.74-1.94.83-3.95,1.69-5.94,2.65-10.12,4.88-2.57,34.68,1.94,52.49l-3.99,1.01Z"/>
  <path class="cls-3" d="M308.29,412.47c-1.3-21.25-10.45-20.76-20.15-20.25-5.06.27-10.3.55-13.85-2.76-2.3-2.14-3.56-5.5-3.83-10.25-2.52-1.47-5.9-4.79-5.37-8.23-.1-.56-.35-1.03-.51-1.22-5.88.8-9.53.04-11.48-2.4-2.88-3.59-.79-9.24,1.42-15.23,1.81-4.9,3.87-10.45,2.37-13.45-14.7-24.37-5.75-45.08,7.54-56.33,15.22-12.89,41.67-17.78,60.71-1.45l-2.68,3.12c-17.31-14.85-41.44-10.33-55.37,1.46-18.31,15.51-15.44,36.58-6.64,51.13l.07.12c2.39,4.6.09,10.82-2.13,16.83-1.64,4.43-3.5,9.45-2.07,11.22.53.66,2.22,1.64,7.66.91,1.03-.2,2.08.03,2.95.66,1.49,1.08,2.17,3.03,2.31,4.5l.03.35-.09.34c-.3,1.2,2.5,3.9,3.97,4.41l1.36.47.03,1.44c.08,4.24.92,7.05,2.57,8.58,2.27,2.11,6.24,1.9,10.83,1.66,9.68-.51,22.93-1.21,24.47,24.1l-4.11.25Z"/>
  <path class="cls-3" d="M342.41,344.58c-8.33,0-17.3-2.99-23.94-5.84-9.66-4.14-17.95-9.44-21.17-11.99-.1-.08-.21-.16-.32-.23,0,.59.01,1.18.06,1.76v.12c.16,1.66.36,3.94-1.03,5.62l-.29.29c-1.23,1-2.71,1.28-4.15.77-2.47-.87-4.34-3.98-4.91-6.62l-.07-.33.04-.33c.41-3.81,2.37-5.39,3.94-6.05.95-.4,1.96-.54,2.96-.52.15-.65.33-1.29.53-1.92-1.12-.38-2.24-.8-3.34-1.22-3.26-1.23-6.42-2.41-9.56-2.59.02.03.03.07.05.1l.1.28c2.12,7.27-.37,9.69-2.05,10.48-2.54,1.21-6.08-.12-8.06-3.01-1.73-2.53-2.26-6.47,1.44-9.97l.23-.21.28-.14c.41-.2.83-.39,1.24-.55-1.68-2.37-3.45-5.09-3.95-8.97-.92-4.72.53-10.05,3.71-13.58,2.17-2.41,4.82-3.62,7.49-3.44,3.34-.13,6.62,2.32,8.62,6.44.88,1.8,1.52,4.06,1.62,6.43.21-.32.44-.63.7-.95l.25-.3.34-.19c4.23-2.37,10.44-.84,13.03,3.23.88,1.38,3.09,6.02-2.75,11.1,2.16,1.56,3.7,3.01,3.85,4.89.06.78-.1,1.94-1.25,3.03l-.45.44-.62.11c-2.39.41-4.7.23-6.97-.27-.18.57-.34,1.14-.48,1.73.94.41,1.75.9,2.33,1.35,6.81,5.4,31.79,19.93,47.82,16.41,2.15-.47,4.04-1.24,5.69-2.33-1.96-.98-3.5-2.31-4.56-3.97-1.77-2.74-2.12-6.01-.92-8.73,1.08-2.45,3.31-4.12,6.1-4.59,2.78-.46,5.69.86,7.59,3.44,2.06,2.81,2.4,6.42.88,9.43-.39.78-.82,1.52-1.28,2.22,9.08.69,20.67-3.57,27.3-10.12,5.65-5.57,9.11-12.37,10.62-18.84-10.19,4.13-21.63,5.98-30.29-1.31-5.22-4.38-7.53-11.13-6.03-17.6,1.52-6.55,6.48-11.47,13.26-13.15,10.44-2.59,21.42,3.32,26.1,14.04,1.45,3.32,2.08,7.16,1.97,11.19,4.17-2.17,7.98-4.52,11.05-6.41l1.17-.72c17.83-10.94,30.78-28.9,32.99-45.74.66-5.05.54-16.93-4.13-29.43-3.7-9.9-11.49-22.95-27.58-28.87l1.42-3.86c13.89,5.11,24.27,15.93,30.01,31.29,4.95,13.26,5.07,25.98,4.36,31.41-2.4,18.3-15.78,36.97-34.91,48.71l-1.16.72c-3.54,2.18-8.32,5.13-13.67,7.7-1.38,8.49-5.71,17.32-12.28,23.79-7.75,7.64-20.97,12.35-31.43,11.2-.65-.07-1.29-.17-1.9-.28-2.57,2.38-5.74,3.99-9.49,4.81-1.98.43-4.05.63-6.16.63ZM355.09,324.34c-.14,0-.28.01-.42.03-1.45.24-2.49,1-3.02,2.2-.63,1.43-.4,3.28.61,4.83,1.02,1.58,2.7,2.56,4.46,3.15.77-.95,1.46-2.03,2.06-3.22.83-1.64.63-3.56-.52-5.14-.86-1.16-2.06-1.86-3.18-1.86ZM290.76,327.9c.47,1.73,1.66,3.17,2.18,3.29.18-.55.07-1.75.01-2.44v-.12c-.1-1.07-.11-2.16-.04-3.27-.27.03-.53.08-.76.18-.28.12-1.11.46-1.4,2.36ZM275.25,316.59c-1.79,1.84-1.36,3.43-.66,4.45.88,1.29,2.37,1.87,2.9,1.61.42-.2.95-1.8-.1-5.46-.19-.41-.4-.8-.63-1.18-.51.16-1.02.35-1.53.58ZM299.68,316.58c.98.17,1.95.26,2.92.24-.52-.48-1.29-1.05-2.07-1.6-.3.43-.58.89-.85,1.36ZM280.31,311.37c4.19,0,8.18,1.5,11.84,2.88,1.16.44,2.31.87,3.44,1.25.46-.92.98-1.8,1.54-2.61-2.88-2.05-5.62-4.39-6.43-7.45-.47,1.01-1.1,1.98-1.91,2.89l-.18.2-.22.15c-4.82,3.17-7.33.55-7.98-.33-1.89-2.54-1.6-7.5.56-9.31,1.15-.97,3.04-1.18,4.65.52l-2.96,2.8c.31.11.81.01.99-.21-.44.53-.65,2.97.1,3.81.3.34,1.26-.02,2.15-.57,2.72-3.25,2.06-7.74.65-10.65-1.25-2.57-3.2-4.24-4.82-4.12h-.16s-.16,0-.16,0c-1.88-.17-3.45,1.23-4.21,2.08-2.32,2.58-3.41,6.64-2.72,10.09l.02.15c.4,3.22,1.98,5.43,3.66,7.77.18.25.36.5.53.75.54-.05,1.08-.08,1.62-.08ZM295.51,301.34c-.72.98-1.01,1.86-.89,2.7.29,1.99,2.81,4.01,5.31,5.77,1.9-1.44,4.38-3.97,2.8-6.45-1.24-1.94-4.65-3.2-7.22-2.02ZM381,277.9c-1.32,0-2.65.16-3.96.48-5.25,1.3-9.08,5.07-10.24,10.08-1.17,5.03.58,10.08,4.66,13.52,7.81,6.57,18.7,4.11,28.42-.29.4-4.4-.13-8.45-1.51-11.61-3.27-7.5-10.18-12.18-17.38-12.18ZM282.53,302.29h0Z"/>
  <text class="cls-1" transform="translate(174.12 580.75)"><tspan x="0" y="0">Ψυ</tspan><tspan class="cls-5" x="40.23" y="0">χ</tspan><tspan class="cls-7" x="55.96" y="0">ο</tspan><tspan class="cls-8" x="73.06" y="0">λ</tspan><tspan class="cls-6" x="88.51" y="0">όγ</tspan><tspan x="121.37" y="0">ος – Ψυ</tspan><tspan class="cls-6" x="226.27" y="0">χ</tspan><tspan x="242" y="0">οθεραπευτ</tspan><tspan class="cls-9" x="403.98" y="0">ή</tspan><tspan x="422.3" y="0">ς</tspan></text>
  <g>
    <text class="cls-4" transform="translate(67.07 523.62)"><tspan x="0" y="0">Σάκης </tspan></text>
    <text class="cls-2" transform="translate(287.39 523.63)"><tspan x="0" y="0">Παπαλίτσας</tspan></text>
  </g>
</svg>