<?xml version="1.0" encoding="UTF-8"?>
<svg id="Layer_1" data-name="Layer 1" xmlns="http://www.w3.org/2000/svg" viewBox="0 0 773.25 773.25">
  <defs>
    <style>
      .cls-1 {
        stroke: #667c8c;
      }

      .cls-1, .cls-2 {
        fill: none;
        stroke-miterlimit: 10;
        stroke-width: 2px;
      }

      .cls-3 {
        font-family: AktivGrotesk-Hair, 'Aktiv Grotesk';
        font-size: 58.66px;
      }

      .cls-3, .cls-4 {
        fill: #667c8c;
      }

      .cls-4 {
        font-family: AktivGrotesk-Light, 'Aktiv Grotesk';
        font-size: 109.92px;
        font-weight: 300;
      }

      .cls-5 {
        fill: #8ca787;
      }

      .cls-6 {
        letter-spacing: .02em;
      }

      .cls-7 {
        letter-spacing: .03em;
      }

      .cls-2 {
        stroke: #fff;
      }

      .cls-8 {
        letter-spacing: 0em;
      }

      .cls-9 {
        letter-spacing: .01em;
      }
    </style>
  </defs>
  <path class="cls-5" d="M471.25,354.46c17.58,0,34.41-15.45,33.6-33.6-.82-18.2-14.76-33.6-33.6-33.6-17.58,0-34.41,15.45-33.6,33.6.82,18.2,14.76,33.6,33.6,33.6h0Z"/>
  <path class="cls-5" d="M411.19,279.76c12.08,0,23.66-10.62,23.1-23.1-.56-12.52-10.15-23.1-23.1-23.1-12.08,0-23.66,10.62-23.1,23.1.56,12.52,10.15,23.1,23.1,23.1h0Z"/>
  <path class="cls-5" d="M334.87,260.31c7.57,0,14-6.43,14-14s-6.41-14-14-14-14,6.43-14,14,6.41,14,14,14h0Z"/>
  <text class="cls-4" transform="translate(202.71 480.1)"><tspan class="cls-8" x="0" y="0">Σ</tspan><tspan x="63.09" y="0">ΆΚΗΣ </tspan></text>
  <text class="cls-3" transform="translate(202.09 538.18)"><tspan x="0" y="0">ΠΑΠ</tspan><tspan class="cls-7" x="115.61" y="0">Α</tspan><tspan x="154.73" y="0">ΛΊ</tspan><tspan class="cls-9" x="203.12" y="0">Τ</tspan><tspan x="237.14" y="0">Σ</tspan><tspan class="cls-6" x="269.93" y="0">Α</tspan><tspan x="308.47" y="0">Σ</tspan></text>
  <path class="cls-1" d="M356.01,380.6c38.15.53,76.5-8.63,109.35-28.2,12.93-7.7,37.59-24.53,22.61-40.71-22.97-20.24-68.66-16.87-94.31-3.05-19.23,9.87-20.34,29.68,4.55,30.07,40.44-.97,86.68-6.98,113.43-38.94,4.73-5.88,8.74-13.23,9.21-20.68,1.44-14.79-15.19-26.01-28.91-22.79-6.22,1.92-4.44,7.4.38,8.58,8.54,2.23,16.5-5.12,18.04-13.48,1.21-5.78-.16-12.09-3.21-17.55-4.27-7.72-11.44-13.66-18.87-18.39-30.36-18.13-69.26-33.27-103.52-20.25-9.51,3.4-22.03,13.46-15.81,24.19,2.19,3.61,6.2,5.84,10.29,6.9,8.9,2.18,19.78.57,28.06-4.04,8.31-4.27,12.32-14.42,5.17-21.73-2.52-2.79-6.14-5.03-10.1-6.73-45.11-16.03-98.27-5.32-136.13,23.13-15.54,11.87-32.5,30.12-28.66,51.05,3.48,18.98,26.25,32.13,45.1,28.81,30.53-4.9,32.26-36.71,3.15-45.64-14.13-4.14-29.82-3-42.9,4.3-13.58,7.46-23.69,23.17-20.12,38.88,3.88,18.87,23.16,30.67,40.98,34.59,9.83,2.32,32.82,9.2,68.03,3.67"/>
  <path class="cls-2" d="M440.73,335.11c23.03-3.81,45.19-11.39,62.12-26.32"/>
  <path class="cls-2" d="M465.36,352.41c12.93-7.7,37.59-24.53,22.61-40.71-10.45-9.21-25.61-13.53-41.44-14.2"/>
</svg>