<?xml version="1.0" encoding="UTF-8"?>
<svg id="Layer_1" data-name="Layer 1" xmlns="http://www.w3.org/2000/svg" viewBox="0 0 773.25 773.25">
  <defs>
    <style>
      .cls-1 {
        font-family: NotoSerif-Regular, 'Noto Serif';
        font-size: 73.38px;
        font-variation-settings: 'wght' 400, 'wdth' 100;
      }

      .cls-2 {
        font-family: Manrope-Regular, Manrope;
        font-size: 31.02px;
        font-variation-settings: 'wght' 400;
      }

      .cls-3 {
        font-family: Manrope-Light, Manrope;
        font-size: 26.16px;
        font-variation-settings: 'wght' 300;
        font-weight: 300;
      }

      .cls-4 {
        letter-spacing: 0em;
      }

      .cls-5 {
        letter-spacing: 0em;
      }

      .cls-6 {
        letter-spacing: -.06em;
      }

      .cls-7 {
        letter-spacing: -.02em;
      }

      .cls-8 {
        letter-spacing: -.02em;
      }

      .cls-9 {
        letter-spacing: -.02em;
      }

      .cls-10 {
        letter-spacing: -.04em;
      }

      .cls-11 {
        letter-spacing: -.03em;
      }

      .cls-12 {
        letter-spacing: -.03em;
      }

      .cls-13 {
        letter-spacing: 0em;
      }

      .cls-14 {
        letter-spacing: 0em;
      }

      .cls-15 {
        fill: none;
        stroke: #000;
        stroke-miterlimit: 10;
        stroke-width: 4px;
      }
    </style>
  </defs>
  <g>
    <path class="cls-15" d="M447.38,125.05c37.88,13.94,42.06,59.04,40.16,73.54-2.92,22.21-19.79,44.21-41.26,57.4-12.81,7.86-40.3,25.74-57.46,11.32-12.03-10.11-7.92-29.14,7.78-33.02,11.83-2.93,23.84,4.2,28.83,15.64s1.07,32.13-12.56,45.57c-13.87,13.68-40.99,17.69-47.89,7.01-3.23-4.99-1.37-11.37,4.61-12.37,5.29-.88,10.71,5.99,7.65,12.05-14.68,29.05-65.32-.65-75.41-8.66-2.82-2.24-11.14-4.9-12.05,3.5.75,3.46,3.99,8.13,7,5.69,1.06-1.28.84-3.42.69-5.16-.63-7.26,2.25-15.62,6.99-20.29,13.12-9.45-.28-18.97-7.99-14.64-9.48,11.59,18.33,17.67,12.71,23.06-12.42,2.14-24.13-11.05-37.16-4.62-9.81,9.29,11.88,20.65,6.42,1.92-2.56-5.57-7.46-8.95-8.35-16.14-1.76-8.8,4.42-18.39,11.11-17.77,7.3-.47,14.2,14.18,6.88,22.36-10.07,6.62-8.24-11.96-3.81-7.28"/>
    <path class="cls-15" d="M363.64,423.1c11.21-25.16,10.43-57.49-1.88-66.5-35.89-26.27-58.21-79.26-24.98-119.86,24.77-30.26,59.46-30.26,87.26-20.06,19.1,7.01,33.27,19.07,39.52,42.19,9.9,36.57,46.73,29.29,25.11,51.93-6.9,7.23-.35,12.83-.17,16.53s-5.12,7.07,2.69,13.9c6.46,6.02,1.32,15.63-4.74,19.84-8.02,6.81-16.68,9.24-25.67,13.58-13.62,6.57-5.88,39.44,1.02,66.66"/>
    <path class="cls-15" d="M332.48,241.67c-40.19-34.48-113.42,10.42-79.14,67.11,6.18,11.91-21.08,40.32,6.84,36.51,1.98-.45,3.29,2.02,3.48,4.04-.85,3.35,4.1,7.53,6.43,8.33.68,35.15,42.88-9.78,46.03,41.85"/>
  </g>
  <text class="cls-1" transform="translate(70.98 516.4)"><tspan x="0" y="0">Σάκης Πα</tspan><tspan class="cls-14" x="333.97" y="0">π</tspan><tspan class="cls-4" x="380.79" y="0">αλ</tspan><tspan class="cls-6" x="470.46" y="0">ί</tspan><tspan class="cls-14" x="487.05" y="0">τσ</tspan><tspan class="cls-9" x="566.45" y="0">α</tspan><tspan x="611.87" y="0">ς</tspan></text>
  <text class="cls-2" transform="translate(161.71 567.75)"><tspan x="0" y="0">Ψυ</tspan><tspan class="cls-7" x="40.23" y="0">χ</tspan><tspan class="cls-10" x="55.96" y="0">ο</tspan><tspan class="cls-12" x="73.06" y="0">λ</tspan><tspan class="cls-8" x="88.51" y="0">όγ</tspan><tspan x="121.37" y="0">ος – Ψυ</tspan><tspan class="cls-8" x="226.27" y="0">χ</tspan><tspan x="242" y="0">οθεραπευτ</tspan><tspan class="cls-13" x="403.98" y="0">ή</tspan><tspan x="422.3" y="0">ς</tspan></text>
  <text class="cls-3" transform="translate(229.63 610.26)"><tspan x="0" y="0">Πα</tspan><tspan class="cls-11" x="33.56" y="0">ι</tspan><tspan x="41.64" y="0">δ</tspan><tspan class="cls-11" x="56.89" y="0">ι</tspan><tspan class="cls-5" x="64.97" y="0">ά • Έφηβοι • Ενήλικες</tspan></text>
</svg>