<?xml version="1.0" encoding="UTF-8"?>
<svg id="Layer_1" data-name="Layer 1" xmlns="http://www.w3.org/2000/svg" xmlns:xlink="http://www.w3.org/1999/xlink" viewBox="0 0 773.25 773.25">
  <defs>
    <style>
      .cls-1 {
        fill: url(#linear-gradient-3);
      }

      .cls-2 {
        fill: url(#linear-gradient-2);
      }

      .cls-3, .cls-4, .cls-5 {
        fill: #8ca787;
      }

      .cls-6 {
        fill: url(#linear-gradient);
      }

      .cls-7 {
        fill: #4a5a66;
        stroke: #4a5a66;
      }

      .cls-7, .cls-4, .cls-5 {
        stroke-miterlimit: 10;
      }

      .cls-7, .cls-5 {
        stroke-width: 3px;
      }

      .cls-8 {
        letter-spacing: 0em;
      }

      .cls-9 {
        fill: #fff;
      }

      .cls-10 {
        letter-spacing: 0em;
      }

      .cls-11 {
        fill: #8ca787;
      }

      .cls-12 {
        font-family: Manrope-Regular, Manrope;
        font-size: 25.74px;
        font-variation-settings: 'wght' 400;
      }

      .cls-12, .cls-13 {
        fill: #667c8c;
      }

      .cls-4 {
        stroke-width: 4px;
      }

      .cls-4, .cls-5 {
        stroke: #8ca787;
      }

      .cls-14 {
        letter-spacing: -.02em;
      }

      .cls-15 {
        letter-spacing: -.04em;
      }

      .cls-16 {
        letter-spacing: -.03em;
      }

      .cls-17 {
        letter-spacing: -.03em;
      }

      .cls-18 {
        letter-spacing: 0em;
      }
    </style>
    <linearGradient id="linear-gradient" x1="346.62" y1="270.67" x2="346.62" y2="316.88" gradientUnits="userSpaceOnUse">
      <stop offset="0" stop-color="#8ca787"/>
      <stop offset="1" stop-color="#667c8c"/>
    </linearGradient>
    <linearGradient id="linear-gradient-2" x1="396.94" x2="396.94" xlink:href="#linear-gradient"/>
    <linearGradient id="linear-gradient-3" x1="371.78" y1="260.49" x2="371.78" y2="316.88" xlink:href="#linear-gradient"/>
  </defs>
  <g>
    <path class="cls-5" d="M370.9,247.62h1.77c19.2,0,35.38,4.9,48.24,14.59.14.1.3.16.47.16h12.37c.71,0,1.07-.87.56-1.37-11.41-11.11-30.84-23.05-61.63-23.05h-1.77c-30.79,0-50.23,11.95-61.63,23.05-.51.5-.16,1.37.56,1.37h12.37c.17,0,.34-.06.47-.16,12.86-9.7,29.03-14.59,48.24-14.59Z"/>
    <rect class="cls-7" x="290.9" y="330.63" width="158.25" height="7.09" rx="2.46" ry="2.46"/>
    <g>
      <rect class="cls-6" x="339.91" y="270.67" width="13.42" height="46.21" rx="2" ry="2"/>
      <rect class="cls-2" x="390.23" y="270.67" width="13.42" height="46.21" rx="2" ry="2"/>
      <rect class="cls-1" x="364.86" y="260.49" width="13.84" height="56.39" rx="2" ry="2"/>
    </g>
    <g>
      <rect class="cls-4" x="290.9" y="273.56" width="30.64" height="39.09" rx="2" ry="2"/>
      <g>
        <path class="cls-9" d="M313.22,306.8h-14.24c-1.36,0-2.46-1.1-2.46-2.46v-11.47c0-3.67,2.98-6.64,6.64-6.64h5.87c3.67,0,6.64,2.98,6.64,6.64v11.47c0,1.36-1.1,2.46-2.46,2.46Z"/>
        <rect class="cls-3" x="300.33" y="301.12" width="11.54" height="9.47" rx="3.28" ry="3.28"/>
        <circle class="cls-9" cx="306" cy="280.38" r="4.15"/>
        <circle class="cls-3" cx="306.01" cy="297.5" r="2.93"/>
        <path class="cls-3" d="M300.7,298.37c.63.52.83,1.42.17,1.9-.12.08-.24.16-.37.22-.65.3-1.48.32-2.06-.09-5.97-4.28-1.32-10.34-1.32-10.34,0,0-1.19,4.39,3.58,8.32Z"/>
        <path class="cls-3" d="M311.48,298.37c-.63.52-.83,1.42-.17,1.9.12.08.24.16.37.22.65.3,1.48.32,2.06-.09,5.97-4.28,1.32-10.34,1.32-10.34,0,0,1.19,4.39-3.58,8.32Z"/>
      </g>
    </g>
    <g>
      <path class="cls-4" d="M428.15,273.56h20.52c2.79,0,5.06,2.27,5.06,5.06v28.97c0,2.79-2.27,5.06-5.06,5.06h-23.58c-1.1,0-2-.9-2-2v-32.03c0-2.79,2.27-5.06,5.06-5.06Z"/>
      <g>
        <path class="cls-9" d="M430.42,291.2h15.92c.1,0,.2.03.29.08.39.25,1.44,1.08,1.44,2.69s-1.05,2.44-1.44,2.69c-.09.06-.19.08-.29.08h-15.92c-.44,0-.69-.5-.43-.85.33-.44.63-1.08.63-1.93s-.29-1.49-.63-1.93c-.26-.35,0-.85.43-.85ZM446.67,299.14h-15.92c-.1,0-.2.03-.29.08-.39.25-1.44,1.08-1.44,2.69,0,1.61,1.05,2.44,1.44,2.69.09.06.19.08.29.08h15.92c.44,0,.69-.5.43-.85-.33-.44-.63-1.08-.63-1.93s.29-1.49.63-1.93c.26-.35,0-.85-.43-.85Z"/>
        <path class="cls-9" d="M447.49,289.04c-.29,0-.58-.06-.86-.2l-8.19-4.05-7.96,4.04c-.96.49-2.13.1-2.62-.85-.49-.96-.11-2.13.85-2.62l9.7-4.93,9.94,4.92c.96.48,1.36,1.64.88,2.61-.34.69-1.03,1.08-1.75,1.08Z"/>
      </g>
    </g>
  </g>
  <g>
    <g>
      <path class="cls-11" d="M203.45,444.04v41.67c0,.96-.77,1.73-1.73,1.73h-5.44c-.96,0-1.73-.77-1.73-1.73v-33.8c0-.96-.77-1.73-1.73-1.73h-17.28c-.96,0-1.73.77-1.73,1.73v33.8c0,.96-.77,1.73-1.73,1.73h-5.5c-.96,0-1.73-.77-1.73-1.73v-41.67c0-.96.77-1.73,1.73-1.73h35.14c.96,0,1.73.77,1.73,1.73Z"/>
      <path class="cls-11" d="M241.58,478.29h-17.92c-.69,0-1.31.41-1.58,1.03l-3.12,7.09c-.28.63-.9,1.03-1.58,1.03h-5.8c-1.27,0-2.11-1.33-1.56-2.47l19.86-41.67c.29-.6.89-.99,1.56-.99h2.36c.67,0,1.27.38,1.56.98l19.92,41.67c.55,1.15-.29,2.48-1.56,2.48h-5.8c-.68,0-1.3-.4-1.58-1.02l-3.18-7.11c-.28-.62-.9-1.02-1.58-1.02ZM228.48,470.67h8.25c1.26,0,2.1-1.31,1.57-2.45l-4.14-9.03c-.62-1.35-2.53-1.34-3.15,0l-4.11,9.03c-.52,1.15.32,2.45,1.57,2.45Z"/>
      <path class="cls-11" d="M300.51,444.04v41.67c0,.96-.77,1.73-1.73,1.73h-5.44c-.96,0-1.73-.77-1.73-1.73v-33.8c0-.96-.77-1.73-1.73-1.73h-17.28c-.96,0-1.73.77-1.73,1.73v33.8c0,.96-.77,1.73-1.73,1.73h-5.5c-.96,0-1.73-.77-1.73-1.73v-41.67c0-.96.77-1.73,1.73-1.73h35.14c.96,0,1.73.77,1.73,1.73Z"/>
      <path class="cls-11" d="M338.64,478.29h-17.92c-.69,0-1.31.41-1.58,1.03l-3.12,7.09c-.28.63-.9,1.03-1.58,1.03h-5.8c-1.27,0-2.11-1.33-1.56-2.47l19.86-41.67c.29-.6.89-.99,1.56-.99h2.36c.67,0,1.27.38,1.56.98l19.92,41.67c.55,1.15-.29,2.48-1.56,2.48h-5.8c-.68,0-1.3-.4-1.58-1.02l-3.18-7.11c-.28-.62-.9-1.02-1.58-1.02ZM325.55,470.67h8.25c1.26,0,2.1-1.31,1.57-2.45l-4.14-9.03c-.62-1.35-2.53-1.34-3.15,0l-4.11,9.03c-.52,1.15.32,2.45,1.57,2.45Z"/>
      <path class="cls-11" d="M398.84,487.44h-5.7c-.69,0-1.31-.41-1.59-1.04l-11.41-26.12c-.6-1.38-2.57-1.38-3.17,0l-11.41,26.13c-.28.63-.9,1.04-1.59,1.04h-5.77c-1.26,0-2.1-1.31-1.57-2.45l19.21-41.67c.28-.61.9-1.01,1.57-1.01h2.2c.68,0,1.29.39,1.57,1.01l19.21,41.67c.53,1.15-.31,2.45-1.57,2.45Z"/>
      <path class="cls-11" d="M415.12,487.44h-5.76c-.96,0-1.73-.77-1.73-1.73v-41.67c0-.96.77-1.73,1.73-1.73h5.76c.96,0,1.73.77,1.73,1.73v41.67c0,.96-.77,1.73-1.73,1.73Z"/>
      <path class="cls-11" d="M460.13,450.25h-10.94c-.96,0-1.73.77-1.73,1.73v33.74c0,.96-.77,1.73-1.73,1.73h-5.76c-.96,0-1.73-.77-1.73-1.73v-33.74c0-.96-.77-1.73-1.73-1.73h-10.88c-.96,0-1.73-.77-1.73-1.73v-4.48c0-.96.77-1.73,1.73-1.73h34.5c.96,0,1.73.77,1.73,1.73v4.48c0,.96-.77,1.73-1.73,1.73Z"/>
      <path class="cls-11" d="M503.8,481.23v4.48c0,.96-.77,1.73-1.73,1.73h-34.44c-.96,0-1.73-.77-1.73-1.73v-1.83c0-.39.13-.77.37-1.07l13.27-16.86c.48-.62.5-1.48.02-2.11l-12.68-16.91c-.22-.3-.35-.66-.35-1.04v-1.85c0-.96.77-1.73,1.73-1.73h33.42c.96,0,1.73.77,1.73,1.73v4.48c0,.96-.77,1.73-1.73,1.73h-18.55c-1.43,0-2.24,1.63-1.38,2.77l8.18,10.83c.47.63.47,1.49-.02,2.11l-8.4,10.76c-.89,1.14-.08,2.79,1.36,2.79h19.18c.96,0,1.73.77,1.73,1.73Z"/>
      <path class="cls-11" d="M539.94,478.29h-17.92c-.69,0-1.31.41-1.58,1.03l-3.12,7.09c-.28.63-.9,1.03-1.58,1.03h-5.8c-1.27,0-2.11-1.33-1.56-2.47l19.86-41.67c.29-.6.89-.99,1.56-.99h2.36c.67,0,1.27.38,1.56.98l19.92,41.67c.55,1.15-.29,2.48-1.56,2.48h-5.8c-.68,0-1.3-.4-1.58-1.02l-3.18-7.11c-.28-.62-.9-1.02-1.58-1.02ZM526.84,470.67h8.25c1.26,0,2.1-1.31,1.57-2.45l-4.14-9.03c-.62-1.35-2.53-1.34-3.15,0l-4.11,9.03c-.52,1.15.32,2.45,1.57,2.45Z"/>
      <path class="cls-11" d="M596.12,481.23v4.48c0,.96-.77,1.73-1.73,1.73h-34.44c-.96,0-1.73-.77-1.73-1.73v-1.83c0-.39.13-.77.37-1.07l13.27-16.86c.48-.62.5-1.48.02-2.11l-12.68-16.91c-.22-.3-.35-.66-.35-1.04v-1.85c0-.96.77-1.73,1.73-1.73h33.42c.96,0,1.73.77,1.73,1.73v4.48c0,.96-.77,1.73-1.73,1.73h-18.55c-1.43,0-2.24,1.63-1.38,2.77l8.18,10.83c.47.63.47,1.49-.02,2.11l-8.4,10.76c-.89,1.14-.08,2.79,1.36,2.79h19.18c.96,0,1.73.77,1.73,1.73Z"/>
    </g>
    <g>
      <path class="cls-13" d="M198.11,413.95h-23.73c-.69,0-1.31.4-1.58,1.03l-4.67,10.6c-.28.63-.9,1.03-1.58,1.03h-2.61c-1.26,0-2.1-1.31-1.57-2.46l21.73-46.99c.28-.61.9-1,1.57-1h1.15c.67,0,1.29.39,1.57,1l21.8,46.99c.53,1.15-.31,2.46-1.57,2.46h-2.61c-.68,0-1.3-.4-1.58-1.02l-4.74-10.62c-.28-.62-.9-1.02-1.58-1.02ZM178.13,408.94h16.23c1.25,0,2.09-1.29,1.58-2.43l-8.14-18.39c-.61-1.37-2.56-1.37-3.16,0l-8.09,18.39c-.5,1.14.33,2.43,1.58,2.43Z"/>
      <path class="cls-13" d="M266.43,401.43c0,14.1-11.95,25.62-26.69,25.62s-26.62-11.52-26.62-25.62,11.95-25.62,26.62-25.62,26.69,11.52,26.69,25.62ZM260.14,401.43c0-11.02-9.09-19.97-20.4-19.97s-20.4,8.95-20.4,19.97,9.16,19.97,20.4,19.97,20.4-8.95,20.4-19.97ZM226.65,398.85h26.24c.96,0,1.73.77,1.73,1.73v1.55c0,.96-.77,1.73-1.73,1.73h-26.24c-.96,0-1.73-.77-1.73-1.73v-1.55c0-.96.77-1.73,1.73-1.73Z"/>
      <path class="cls-13" d="M305.24,413.95h-23.73c-.69,0-1.31.4-1.58,1.03l-4.67,10.6c-.28.63-.9,1.03-1.58,1.03h-2.61c-1.26,0-2.1-1.31-1.57-2.46l21.73-46.99c.28-.61.9-1,1.57-1h1.15c.67,0,1.29.39,1.57,1l21.8,46.99c.53,1.15-.31,2.46-1.57,2.46h-2.61c-.68,0-1.3-.4-1.58-1.02l-4.74-10.62c-.28-.62-.9-1.02-1.58-1.02ZM285.26,408.94h16.23c1.25,0,2.09-1.29,1.58-2.43l-8.14-18.39c-.61-1.37-2.56-1.37-3.16,0l-8.09,18.39c-.5,1.14.33,2.43,1.58,2.43Z"/>
      <path class="cls-13" d="M368.98,377.89v46.99c0,.96-.77,1.73-1.73,1.73h-.7c-.5,0-.98-.22-1.31-.6l-30.23-34.84c-1.05-1.21-3.04-.47-3.04,1.13v32.57c0,.96-.77,1.73-1.73,1.73h-2.7c-.96,0-1.73-.77-1.73-1.73v-46.99c0-.96.77-1.73,1.73-1.73h.7c.5,0,.98.22,1.31.59l30.3,34.85c1.05,1.21,3.03.46,3.03-1.13v-32.58c0-.96.77-1.73,1.73-1.73h2.62c.96,0,1.73.77,1.73,1.73Z"/>
      <path class="cls-13" d="M413.3,413.95h-23.73c-.69,0-1.31.4-1.58,1.03l-4.67,10.6c-.28.63-.9,1.03-1.58,1.03h-2.61c-1.26,0-2.1-1.31-1.57-2.46l21.73-46.99c.28-.61.9-1,1.57-1h1.15c.67,0,1.29.39,1.57,1l21.8,46.99c.53,1.15-.31,2.46-1.57,2.46h-2.61c-.68,0-1.3-.4-1.58-1.02l-4.74-10.62c-.28-.62-.9-1.02-1.58-1.02ZM393.32,408.94h16.23c1.25,0,2.09-1.29,1.58-2.43l-8.14-18.39c-.61-1.37-2.56-1.37-3.16,0l-8.09,18.39c-.5,1.14.33,2.43,1.58,2.43Z"/>
      <path class="cls-13" d="M471.54,423.12v1.77c0,.96-.77,1.73-1.73,1.73h-37.05c-.96,0-1.73-.77-1.73-1.73v-.4c0-.38.13-.75.36-1.05l16.09-20.97c.47-.62.48-1.47.01-2.09l-15.76-21.03c-.22-.3-.35-.66-.35-1.04v-.41c0-.96.77-1.73,1.73-1.73h36.47c.96,0,1.73.77,1.73,1.73v1.77c0,.96-.77,1.73-1.73,1.73h-25.88c-1.42,0-2.24,1.62-1.39,2.76l12.12,16.23c.46.62.46,1.46,0,2.08l-12.22,16.16c-.86,1.14-.05,2.77,1.38,2.77h26.21c.96,0,1.73.77,1.73,1.73Z"/>
      <path class="cls-13" d="M485.48,426.62h-2.77c-.96,0-1.73-.77-1.73-1.73v-46.99c0-.96.77-1.73,1.73-1.73h2.77c.96,0,1.73.77,1.73,1.73v46.99c0,.96-.77,1.73-1.73,1.73Z"/>
      <path class="cls-13" d="M550.4,401.43c0,14.1-11.88,25.62-26.69,25.62s-26.62-11.52-26.62-25.62,11.95-25.62,26.62-25.62,26.69,11.52,26.69,25.62ZM544.1,401.43c0-11.02-9.09-19.97-20.4-19.97s-20.4,8.95-20.4,19.97,9.16,19.97,20.4,19.97,20.4-8.95,20.4-19.97Z"/>
      <path class="cls-13" d="M597.91,423.12v1.77c0,.96-.77,1.73-1.73,1.73h-37.05c-.96,0-1.73-.77-1.73-1.73v-.4c0-.38.13-.75.36-1.05l16.09-20.97c.47-.62.48-1.47.01-2.09l-15.76-21.03c-.22-.3-.35-.66-.35-1.04v-.41c0-.96.77-1.73,1.73-1.73h36.47c.96,0,1.73.77,1.73,1.73v1.77c0,.96-.77,1.73-1.73,1.73h-25.88c-1.42,0-2.24,1.62-1.39,2.76l12.12,16.23c.46.62.46,1.46,0,2.08l-12.22,16.16c-.86,1.14-.05,2.77,1.38,2.77h26.21c.96,0,1.73.77,1.73,1.73Z"/>
    </g>
    <text class="cls-12" transform="translate(161.42 526.91)"><tspan x="0" y="0">Πα</tspan><tspan class="cls-17" x="33.48" y="0">ι</tspan><tspan class="cls-10" x="41.85" y="0">δοψυ</tspan><tspan class="cls-14" x="105.17" y="0">χ</tspan><tspan class="cls-15" x="118.23" y="0">ο</tspan><tspan class="cls-16" x="132.42" y="0">λ</tspan><tspan class="cls-14" x="145.24" y="0">όγ</tspan><tspan class="cls-10" x="172.51" y="0">ος – Ψυ</tspan><tspan class="cls-14" x="259.57" y="0">χ</tspan><tspan class="cls-8" x="272.62" y="0">οθεραπευτ</tspan><tspan class="cls-18" x="407.04" y="0">ή</tspan><tspan x="422.24" y="0">ς</tspan></text>
  </g>
</svg>