<?xml version="1.0" encoding="UTF-8"?>
<svg id="Layer_1" data-name="Layer 1" xmlns="http://www.w3.org/2000/svg" viewBox="0 0 773.25 773.25">
  <defs>
    <style>
      .cls-1, .cls-2 {
        font-family: Baskerville, Baskerville;
        font-size: 73.38px;
      }

      .cls-1, .cls-3 {
        fill: #8ca787;
      }

      .cls-2, .cls-4 {
        fill: #667c8c;
      }
    </style>
  </defs>
  <text class="cls-1" transform="translate(101.71 477.58)"><tspan x="0" y="0">Σάκης </tspan></text>
  <text class="cls-2" transform="translate(302.72 477.58)"><tspan x="0" y="0">Παπαλίτσας</tspan></text>
  <g>
    <path class="cls-4" d="M369.64,238.17h-.08l.04.03.04-.03ZM369.64,238.17h-.08l.04.03.04-.03Z"/>
    <path class="cls-4" d="M383.99,238.2l.04-.03h-.08l.04.03ZM426.93,272.86c5.82,0,10.59.05,14.32.16,3.74.11,6.49.3,8.29.59,1.72.29,3.25.74,4.58,1.35,1.33.61,2.42,1.58,3.28,2.91.86,1.33,1.51,3.06,1.94,5.22.43,2.14.64,4.91.64,8.28v3.33h4.96v-52.53h-6.32c-.42,1.83-.82,3.57-1.54,5.08-6.9,14.47-26.03,14.51-30.15,14.51h-100.28c-4.12,0-23.25-.04-30.15-14.51-.72-1.51-1.12-3.25-1.54-5.08h-6.32v52.53h4.96v-3.33c0-3.37.21-6.14.64-8.28.43-2.16,1.08-3.89,1.94-5.22.86-1.33,1.95-2.3,3.28-2.91,1.33-.61,2.86-1.06,4.58-1.35,1.8-.29,4.55-.48,8.29-.59,3.73-.11,8.5-.16,14.32-.16h100.28ZM383.99,238.2l.04-.03h-.08l.04.03Z"/>
    <path class="cls-3" d="M335.77,338.78l-20.15,24.22c-3.32,3.97-6.15,7.41-8.51,10.31-.32.38-.64.77-.94,1.13-.09-2.79-.13-6.15-.13-10.11v-59.02c0-.78,0-1.52,0-2.24l29.72,35.72Z"/>
    <path class="cls-3" d="M368.88,305.31v59.02c0,3.4-.02,6.37-.09,8.92-1.07,2.18-2.24,4.13-3.5,5.87-3.69,5.05-7.59,8.42-11.67,10.07-4.09,1.59-9.29,2.39-15.63,2.39h-15.26c-9.23,0-13.85-3.04-13.85-9.14,0-1.9.68-3.97,2.05-6.22.65-1.12,1.69-2.61,3.15-4.49,1.44-1.86,3.3-4.15,5.54-6.87l29.84-35.96-25.04-30.09c-3.84-4.55-6.27-7.64-7.29-9.24-1.01-1.71-1.5-3.27-1.5-4.7,0-3.66,3.37-5.49,10.12-5.49h9.59c8.45,0,14.56.46,18.28,1.42,3.73.89,6.98,3.11,9.76,6.65,2.1,2.62,3.93,6.54,5.47,11.76.02,1.85.04,3.88.04,6.09Z"/>
    <path class="cls-3" d="M419.74,338.78l20.15,24.22c3.32,3.97,6.15,7.41,8.51,10.31.32.38.64.77.94,1.13.09-2.79.13-6.15.13-10.11v-59.02c0-.78,0-1.52,0-2.24l-29.72,35.72Z"/>
    <path class="cls-3" d="M386.63,305.31v59.02c0,3.4.02,6.37.09,8.92,1.07,2.18,2.24,4.13,3.5,5.87,3.69,5.05,7.59,8.42,11.67,10.07,4.09,1.59,9.29,2.39,15.63,2.39h15.26c9.23,0,13.85-3.04,13.85-9.14,0-1.9-.68-3.97-2.05-6.22-.65-1.12-1.69-2.61-3.15-4.49-1.44-1.86-3.3-4.15-5.54-6.87l-29.84-35.96,25.04-30.09c3.84-4.55,6.27-7.64,7.29-9.24,1.01-1.71,1.5-3.27,1.5-4.7,0-3.66-3.37-5.49-10.12-5.49h-9.59c-8.45,0-14.56.46-18.28,1.42-3.73.89-6.98,3.11-9.76,6.65-2.1,2.62-3.93,6.54-5.47,11.76-.02,1.85-.04,3.88-.04,6.09Z"/>
  </g>
  <rect class="cls-4" x="288.64" y="294.7" width="4.96" height="96.88"/>
  <rect class="cls-4" x="459.99" y="294.7" width="4.96" height="96.88"/>
  <circle class="cls-4" cx="378.51" cy="234.71" r="20.05"/>
</svg>