<?xml version="1.0" encoding="UTF-8"?>
<svg id="Layer_1" data-name="Layer 1" xmlns="http://www.w3.org/2000/svg" viewBox="0 0 773.25 773.25">
  <defs>
    <style>
      .cls-1 {
        font-family: AktivGrotesk-Bold, 'Aktiv Grotesk';
        font-size: 66.25px;
        font-weight: 700;
      }

      .cls-1, .cls-2 {
        fill: #8ca787;
      }

      .cls-3 {
        fill: #8ca787;
      }

      .cls-4 {
        stroke: #fff;
      }

      .cls-4, .cls-5, .cls-6 {
        fill: none;
        stroke-miterlimit: 10;
      }

      .cls-7 {
        font-family: AktivGrotesk-ThinItalic, 'Aktiv Grotesk';
        font-size: 62.25px;
        font-style: italic;
        font-weight: 200;
      }

      .cls-7, .cls-8, .cls-9 {
        fill: #667c8c;
      }

      .cls-5 {
        stroke-dasharray: 1.79 1.79;
      }

      .cls-5, .cls-6 {
        stroke: #8ca787;
        stroke-width: 6px;
      }

      .cls-10 {
        letter-spacing: 0em;
      }

      .cls-11, .cls-12 {
        fill: #fff;
      }

      .cls-13 {
        letter-spacing: 0em;
      }

      .cls-14 {
        letter-spacing: 0em;
      }

      .cls-15 {
        letter-spacing: 0em;
      }

      .cls-8 {
        font-family: Manrope-Regular, Manrope;
        font-size: 25.76px;
        font-variation-settings: 'wght' 400;
      }

      .cls-16 {
        fill: #bacab7;
      }

      .cls-12 {
        font-family: Manrope-Light, Manrope;
        font-size: 19.34px;
        font-variation-settings: 'wght' 300;
        font-weight: 300;
      }

      .cls-17 {
        letter-spacing: -.02em;
      }

      .cls-18 {
        letter-spacing: -.02em;
      }

      .cls-19 {
        letter-spacing: -.02em;
      }

      .cls-20 {
        letter-spacing: -.02em;
      }

      .cls-21 {
        letter-spacing: -.04em;
      }

      .cls-22 {
        letter-spacing: -.03em;
      }

      .cls-23 {
        letter-spacing: -.03em;
      }

      .cls-24 {
        letter-spacing: -.03em;
      }

      .cls-25 {
        letter-spacing: -.01em;
      }

      .cls-26 {
        letter-spacing: 0em;
      }

      .cls-27 {
        letter-spacing: 0em;
      }

      .cls-28 {
        letter-spacing: 0em;
      }

      .cls-29 {
        letter-spacing: 0em;
      }

      .cls-30 {
        fill: #e2e9e1;
      }
    </style>
  </defs>
  <path class="cls-30" d="M404.56,325.9c-14.16,4.99-23.43,1.15-27.82-11.52l-10.8,26.08c12.06-5.86,21.33-2.02,27.82,11.52l10.8-26.08Z"/>
  <g>
    <line class="cls-6" x1="377.89" y1="330.09" x2="378.82" y2="330.47"/>
    <line class="cls-5" x1="380.47" y1="331.15" x2="392.85" y2="336.26"/>
    <line class="cls-6" x1="393.67" y1="336.6" x2="394.6" y2="336.98"/>
  </g>
  <rect class="cls-9" x="193.42" y="544.52" width="262.62" height="31.71"/>
  <text class="cls-7" transform="translate(193.32 434.17)"><tspan class="cls-17" x="0" y="0">Σ</tspan><tspan x="33.68" y="0">άκης </tspan></text>
  <text class="cls-1" transform="translate(188.78 492.58)"><tspan x="0" y="0">Π</tspan><tspan class="cls-13" x="47.96" y="0">α</tspan><tspan class="cls-20" x="93.4" y="0">π</tspan><tspan class="cls-29" x="136.66" y="0">α</tspan><tspan class="cls-25" x="182.57" y="0">λ</tspan><tspan class="cls-22" x="219.93" y="0">ί</tspan><tspan class="cls-26" x="239.01" y="0">τ</tspan><tspan x="273.26" y="0">σ</tspan><tspan class="cls-27" x="314.26" y="0">α</tspan><tspan class="cls-15" x="359.05" y="0">ς</tspan></text>
  <text class="cls-8" transform="translate(192.26 529.38)"><tspan x="0" y="0">Ψυ</tspan><tspan class="cls-19" x="33.41" y="0">χ</tspan><tspan class="cls-21" x="46.47" y="0">ο</tspan><tspan class="cls-24" x="60.68" y="0">λ</tspan><tspan class="cls-19" x="73.51" y="0">όγ</tspan><tspan x="100.8" y="0">ος – Ψυ</tspan><tspan class="cls-18" x="187.92" y="0">χ</tspan><tspan class="cls-10" x="200.98" y="0">οθεραπευτ</tspan><tspan class="cls-28" x="335.51" y="0">ή</tspan><tspan x="350.72" y="0">ς</tspan></text>
  <path class="cls-4" d="M276.43,283.91l-.27-.2"/>
  <path class="cls-16" d="M458.77,313.12c-20.39-10.58-22.71-23.06-6.94-37.42l-50.17,9.3c19.87,7.76,22.18,20.23,6.94,37.42l50.17-9.3Z"/>
  <path class="cls-16" d="M340.96,268.66c24.82,6.41,35.64-2.22,32.45-25.89l35.98,45.1c-22.37-8.36-33.19.27-32.45,25.89l-35.98-45.1Z"/>
  <circle class="cls-2" cx="331.71" cy="309.35" r="46.18"/>
  <circle class="cls-2" cx="419.52" cy="243.2" r="46.18"/>
  <circle class="cls-2" cx="439.24" cy="354.44" r="46.18"/>
  <path class="cls-11" d="M441.99,245.31l-3.09-12.17c-1.15-4.66-3.62-8.45-7.43-11.36-3.82-2.9-8.2-4.35-13.15-4.35-5.93,0-10.98,2.08-15.13,6.23-4.15,4.15-6.23,9.19-6.23,15.13,0,3.04.63,5.94,1.87,8.69,1.24,2.74,2.99,5.15,5.25,7.21v9.17c0,.57.46,1.03,1.03,1.03h19.3c.57,0,1.03-.46,1.03-1.03v-3.71h4.75c1.43,0,2.65-.56,3.63-1.69.73-.84,1.11-1.94,1.11-3.05v-7.12s4.71,0,4.71,0c.72,0,1.43-.3,1.89-.86.51-.62.67-1.32.46-2.1ZM406.26,245.21c1.26,0,2.29.98,2.29,2.17s-1.03,2.17-2.29,2.17-2.29-.98-2.29-2.17,1.03-2.17,2.29-2.17ZM406.89,241.95c0-1.56,1.37-2.84,3.07-2.84s3.05,1.28,3.05,2.84-1.37,2.84-3.05,2.84-3.07-1.28-3.07-2.84ZM422.52,236.69c-.8.37-1.66.6-2.53.67-.92,1.43-2.62,2.35-4.47,2.35s-3.67-.97-4.56-2.48c-2.6-.61-4.49-2.95-4.49-5.69,0-3.22,2.62-5.85,5.85-5.85.13,0,.26,0,.39.01,1.37-2.3,3.88-3.75,6.6-3.75s5.25,1.46,6.62,3.77c2.92.32,5.2,2.8,5.2,5.81,0,3.23-2.62,5.86-5.85,5.86-.98,0-1.92-.24-2.77-.7Z"/>
  <path class="cls-11" d="M331.11,276.2c2.64-.05,5.19.95,7.08,2.79,1.9,1.83,2.99,4.34,3.04,6.98s-.95,5.19-2.79,7.08c-1.83,1.9-4.34,2.99-6.98,3.04-2.64.05-5.19-.95-7.08-2.79-1.9-1.83-2.99-4.34-3.04-6.98s.95-5.19,2.79-7.08c1.83-1.9,4.34-2.99,6.98-3.04ZM331.53,299.4c5.4-.1,10.36.97,14.98,3.21,4.48,2.27,6.72,5.05,6.78,8.37l.34,19.12c.07,3.71-2.73,6.88-8.48,9.47l-.13-7.26c-.06-3.15-2.95-5.32-8.67-6.57-1.86-.4-3.33-.57-4.35-.55-2.88.05-5.62.66-8.12,1.87-1.53.71-2.69,1.53-3.46,2.46s-.31,2.24.79,2.6c3.81,1.24,7.46,1.85,10.95,1.78l2.17-.26c.61-.07,1.14.4,1.16,1.01l.12,6.6c0,.55-.41,1.01-.95,1.05l-2.34.18c-4.44.08-8.84-.75-12.94-2.45-5.85-2.38-8.75-5.45-8.82-9.16l-.34-19.12c-.06-3.31,2.08-6.17,6.48-8.6,4.53-2.4,9.48-3.65,14.85-3.75ZM331.65,306.03c-1.76.03-3.43.76-4.65,2.03-1.22,1.27-1.89,2.96-1.86,4.72s.76,3.43,2.03,4.65c1.27,1.22,2.96,1.89,4.72,1.86s3.43-.76,4.65-2.03c1.22-1.27,1.89-2.96,1.86-4.72s-.76-3.43-2.03-4.65c-1.27-1.22-2.96-1.89-4.72-1.86Z"/>
  <g>
    <path class="cls-11" d="M423.83,355.21h30.17c.2,0,.38.05.55.16.74.48,2.73,2.04,2.73,5.1s-1.99,4.62-2.73,5.1c-.17.11-.35.16-.55.16h-30.17c-.83,0-1.32-.94-.82-1.6.63-.84,1.19-2.04,1.19-3.66s-.56-2.82-1.19-3.66c-.5-.66,0-1.6.82-1.6ZM454.65,370.25h-30.17c-.2,0-.38.05-.55.16-.74.48-2.73,2.04-2.73,5.1s1.99,4.62,2.73,5.1c.17.11.35.16.55.16h30.17c.83,0,1.32-.94.82-1.6-.63-.84-1.19-2.04-1.19-3.66s.56-2.82,1.19-3.66c.5-.66,0-1.6-.82-1.6Z"/>
    <path class="cls-11" d="M439.24,340.96c1.96,0,3.69-.57,5.18-1.72,1.5-1.14,2.24-2.63,2.24-4.47,0-.72-.12-1.4-.37-2.03-.17-.43-.39-.84-.66-1.21-.24-.32-.63-.48-1.03-.42-1.05.16-1.96.64-2.73,1.43-.73.74-1.17,1.61-1.33,2.61-.08.49-.49.85-.99.85h-.63c-.5,0-.91-.36-.99-.85-.16-.99-.6-1.85-1.33-2.58-.8-.8-1.74-1.27-2.82-1.43-.37-.05-.73.13-.94.43-.27.37-.49.76-.65,1.19-.25.62-.37,1.29-.37,2.01,0,1.84.75,3.33,2.24,4.47,1.5,1.14,3.22,1.72,5.18,1.72ZM434.91,336.01c-.35,0-.64-.12-.88-.36-.24-.24-.36-.53-.36-.88,0-.35.12-.64.36-.88.24-.24.53-.36.88-.36s.64.12.88.36c.24.24.36.53.36.88,0,.35-.12.64-.36.88-.24.24-.53.36-.88.36ZM443.57,336.01c-.35,0-.64-.12-.88-.36-.24-.24-.36-.53-.36-.88,0-.35.12-.64.36-.88.24-.24.53-.36.88-.36s.64.12.88.36c.24.24.36.53.36.88,0,.35-.12.64-.36.88-.24.24-.53.36-.88.36ZM439.24,350.86c-2.76,0-5.1-.96-7.02-2.88s-2.88-4.26-2.88-7.02v-6.19c0-2.52.99-4.59,2.97-6.22,1.98-1.63,4.29-2.44,6.93-2.44s4.95.81,6.93,2.44c1.98,1.63,2.97,3.7,2.97,6.22v12.6c0,.56-.45,1.01-1.01,1.01h-1.46c-1.03,0-1.91-.36-2.63-1.08s-1.08-1.6-1.08-2.63v-1.86c-.41.14-.82.26-1.24.36-.41.09-.82.16-1.24.2v1.29c0,1.48.51,2.94,1.5,4.05,1.26,1.43,2.83,2.14,4.69,2.14h-7.42Z"/>
  </g>
  <text class="cls-12" transform="translate(201.87 566.52)"><tspan x="0" y="0">Πα</tspan><tspan class="cls-23" x="24.82" y="0">ι</tspan><tspan x="30.79" y="0">δ</tspan><tspan class="cls-23" x="42.07" y="0">ι</tspan><tspan class="cls-14" x="48.05" y="0">ά • Έφηβοι • Ενήλικες</tspan></text>
  <path class="cls-16" d="M419.52,200.41c23.63,0,42.79,19.16,42.79,42.79s-19.16,42.79-42.79,42.79-42.79-19.16-42.79-42.79,19.16-42.79,42.79-42.79M419.52,195.41c-26.35,0-47.79,21.44-47.79,47.79s21.44,47.79,47.79,47.79,47.79-21.44,47.79-47.79-21.44-47.79-47.79-47.79h0Z"/>
  <path class="cls-16" d="M439.24,311.9c23.63,0,42.79,19.16,42.79,42.79s-19.16,42.79-42.79,42.79-42.79-19.16-42.79-42.79,19.16-42.79,42.79-42.79M439.24,306.9c-26.35,0-47.79,21.44-47.79,47.79s21.44,47.79,47.79,47.79,47.79-21.44,47.79-47.79-21.44-47.79-47.79-47.79h0Z"/>
  <path class="cls-11" d="M419.52,203.95c21.68,0,39.25,17.57,39.25,39.25s-17.57,39.25-39.25,39.25-39.25-17.57-39.25-39.25c0-21.68,17.57-39.25,39.25-39.25M419.52,199.95c-23.85,0-43.25,19.4-43.25,43.25,0,11.55,4.5,22.41,12.67,30.58,8.17,8.17,19.03,12.67,30.58,12.67,23.85,0,43.25-19.4,43.25-43.25s-19.4-43.25-43.25-43.25h0Z"/>
  <path class="cls-3" d="M439.24,315.44c21.68,0,39.25,17.57,39.25,39.25,0,21.68-17.57,39.25-39.25,39.25s-39.25-17.57-39.25-39.25,17.57-39.25,39.25-39.25M439.24,310.44c-24.4,0-44.25,19.85-44.25,44.25s19.85,44.25,44.25,44.25,44.25-19.85,44.25-44.25c0-24.4-19.85-44.25-44.25-44.25h0Z"/>
  <path class="cls-11" d="M439.24,320.2c19.05,0,34.5,15.44,34.5,34.5,0,19.05-15.44,34.5-34.5,34.5s-34.5-15.44-34.5-34.5,15.44-34.5,34.5-34.5M439.24,315.2c-21.78,0-39.5,17.72-39.5,39.5s17.72,39.5,39.5,39.5,39.5-17.72,39.5-39.5c0-10.55-4.11-20.47-11.57-27.93-7.46-7.46-17.38-11.57-27.93-11.57h0Z"/>
  <path class="cls-16" d="M331.71,263.16c25.51,0,46.18,20.68,46.18,46.18s-20.68,46.18-46.18,46.18-46.18-20.68-46.18-46.18,20.68-46.18,46.18-46.18M331.71,258.16c-28.22,0-51.18,22.96-51.18,51.18s22.96,51.18,51.18,51.18,51.18-22.96,51.18-51.18-22.96-51.18-51.18-51.18h0Z"/>
</svg>