<?xml version="1.0" encoding="UTF-8"?>
<svg id="Layer_1" data-name="Layer 1" xmlns="http://www.w3.org/2000/svg" viewBox="0 0 773.25 773.25">
  <defs>
    <style>
      .cls-1 {
        letter-spacing: 0em;
      }

      .cls-2 {
        font-family: AktivGrotesk-ThinItalic, 'Aktiv Grotesk';
        font-size: 83.31px;
        font-style: italic;
        font-weight: 200;
      }

      .cls-2, .cls-3 {
        fill: #667c8c;
      }

      .cls-4 {
        fill: #8ca787;
        font-family: AktivGrotesk-Bold, 'Aktiv Grotesk';
        font-size: 88.65px;
        font-weight: 700;
      }

      .cls-5 {
        fill: #8ca787;
      }

      .cls-6 {
        fill: #fff;
      }

      .cls-7 {
        letter-spacing: 0em;
      }

      .cls-8 {
        fill: #a8bca4;
      }

      .cls-9 {
        fill: #b3c5b0;
      }

      .cls-10 {
        letter-spacing: -.02em;
      }

      .cls-11 {
        letter-spacing: -.02em;
      }

      .cls-12 {
        letter-spacing: -.03em;
      }

      .cls-13 {
        letter-spacing: 0em;
      }

      .cls-14 {
        letter-spacing: 0em;
      }

      .cls-15 {
        letter-spacing: .01em;
      }
    </style>
  </defs>
  <path class="cls-5" d="M423.15,357.43c-13.8-10.84-17.5-33.36-5.66-47.11,11.87-13.8,32.32-17.28,47.11-5.66,13.8,10.84,17.5,33.36,5.66,47.11-11.87,13.8-32.32,17.28-47.11,5.66h0Z"/>
  <path class="cls-8" d="M367.66,292.9c-8.74-6.87-11.08-21.13-3.59-29.84,7.52-8.74,20.47-10.95,29.84-3.59,8.74,6.87,11.08,21.13,3.59,29.84-7.52,8.74-20.47,10.95-29.84,3.59h0Z"/>
  <path class="cls-9" d="M295.38,279.78c-6-4.71-7.09-13.82-2.38-19.81,4.73-6.02,13.8-7.11,19.81-2.38s7.09,13.82,2.38,19.81c-4.73,6.02-13.8,7.11-19.81,2.38h0Z"/>
  <path class="cls-3" d="M399.16,391.96c-1.02,0-2.03,0-3.05-.02l.03-2.38c37.57.52,73.44-8.72,103.69-26.73,15.67-9.33,24.19-18.03,25.32-25.87.24-1.68.15-3.3-.3-4.88-26.1,16.03-59.92,19.22-88.44,19.9-10.55-.16-17.43-3.94-18.92-10.35-1.67-7.16,3.96-15.44,14.01-20.59,25.76-13.88,69.6-16.03,91.3,3.08l.09.08c1.3,1.4,2.33,2.85,3.1,4.33,6.52-4.29,12.5-9.45,17.69-15.66,3.61-4.49,8.03-11.46,8.51-19.04.55-5.64-1.77-11.02-6.51-15.17-1.41-1.23-2.96-2.28-4.61-3.14-1.25,1.64-2.78,3.07-4.5,4.16-3.37,2.14-7.07,2.77-10.71,1.82-2.9-.71-4.99-2.91-5.06-5.35-.07-2.3,1.67-4.22,4.65-5.13,4.82-1.13,10.04-.57,14.79,1.45.95-1.61,1.64-3.38,1.97-5.19,1.06-5.03.01-10.68-2.93-15.95-3.4-6.14-9.15-11.74-17.6-17.12-31.03-18.53-58.52-26.29-81.98-23.16.35.12.71.25,1.06.37,4.39,1.88,7.77,4.14,10.12,6.75,3.01,3.08,4.32,7,3.67,11.02-.76,4.69-4.19,9.12-8.95,11.56-8.23,4.58-18.82,6.1-27.6,3.95-4.77-1.24-8.51-3.76-10.55-7.12-1.96-3.39-2.29-6.9-.98-10.47,2.44-6.66,10.14-12,16.69-14.35,2.2-.84,4.43-1.56,6.71-2.18-38.99-10.02-84.5-.69-118.66,24.98-11.59,8.86-24.5,21.83-26.97,36.89,1.13-.78,2.28-1.49,3.44-2.14,12.29-6.86,27.54-8.4,41.84-4.2,13.32,4.08,21.43,13.72,20.68,24.54-.74,10.74-10.1,19.11-23.83,21.31-19.5,3.44-41.08-10.39-44.39-28.44-.36-1.96-.53-3.89-.55-5.79-8.22,7.49-13.85,18.81-11.2,30.45,3.77,18.33,22.92,28.74,38.19,32.09.76.18,1.59.38,2.49.6,10.15,2.5,31.27,7.7,61.97,2.89l.37,2.36c-31.17,4.89-52.61-.39-62.91-2.93-.89-.22-1.71-.42-2.45-.6-15.94-3.5-36-14.49-39.99-33.91-3.04-13.36,3.97-26.28,13.68-34.23,1.56-16.85,15.61-31.19,28.19-40.8,35.96-27.02,84.3-36.23,124.94-24.21,25.01-4.96,54.62,2.66,88.22,22.73,8.82,5.61,14.84,11.49,18.43,17.99,3.22,5.76,4.36,12,3.19,17.57-.37,2.03-1.11,3.99-2.14,5.78,1.72.92,3.35,2.05,4.84,3.35,5.26,4.6,7.93,10.86,7.32,17.16-.52,8.16-5.21,15.58-9.05,20.36-5.46,6.52-11.74,11.92-18.59,16.38.71,2.11.9,4.3.58,6.54-1.24,8.58-10.14,17.86-26.46,27.58-29.81,17.75-64.98,27.09-101.89,27.09ZM476.62,312.49c-14.58,0-30.2,3.22-44.01,10.66-8.94,4.59-14.19,11.96-12.79,17.94,1.23,5.26,7.27,8.36,16.59,8.5,28.29-.68,61.89-3.84,87.57-19.78-.67-1.34-1.6-2.65-2.8-3.95-9.4-8.25-26.16-13.38-44.56-13.38ZM283.88,275.67c-.15,2.43-.01,4.9.45,7.42,3.09,16.86,23.33,29.76,41.65,26.52,12.62-2.03,21.19-9.53,21.85-19.12.67-9.68-6.78-18.35-18.98-22.1-13.68-4.01-28.26-2.55-40,4.01-1.7.94-3.37,2.03-4.96,3.27ZM530.41,272.83c-1.48,0-2.93.16-4.33.49-1.84.57-2.92,1.58-2.89,2.77.03,1.15,1.17,2.59,3.26,3.1,3.78.99,6.89-.28,8.84-1.52,1.31-.84,2.51-1.92,3.53-3.17-2.73-1.08-5.61-1.66-8.42-1.66ZM434.62,211.9c-3.65.75-7.19,1.78-10.63,3.09-5.85,2.09-13.11,7.03-15.27,12.93-1.05,2.87-.78,5.71.8,8.43,2.3,3.79,6.68,5.4,9.08,6.03,8.07,1.98,18.24.51,25.89-3.74,4.13-2.12,7.08-5.89,7.72-9.84.54-3.3-.52-6.42-3.06-9.01-2.15-2.38-5.25-4.44-9.25-6.16-1.74-.62-3.5-1.2-5.27-1.73Z"/>
  <text class="cls-2" transform="translate(127.93 424.19)"><tspan class="cls-10" x="0" y="0">Σ</tspan><tspan class="cls-1" x="45.07" y="0">άκης </tspan></text>
  <text class="cls-4" transform="translate(121.87 502.35)"><tspan x="0" y="0">Π</tspan><tspan class="cls-7" x="64.18" y="0">α</tspan><tspan class="cls-11" x="125" y="0">π</tspan><tspan class="cls-15" x="182.89" y="0">α</tspan><tspan class="cls-13" x="244.32" y="0">λ</tspan><tspan class="cls-12" x="294.32" y="0">ί</tspan><tspan class="cls-13" x="319.85" y="0">τ</tspan><tspan x="365.68" y="0">σ</tspan><tspan class="cls-14" x="420.56" y="0">α</tspan><tspan x="480.49" y="0">ς</tspan></text>
  <path class="cls-6" d="M472.15,349.32c-12.2,1.72-24.38,2.38-35.73,2.66-10.55-.16-17.43-3.94-18.92-10.35-1.67-7.16,3.96-15.44,14.01-20.59,10.75-5.79,24.66-9.54,38.79-10.56l1.47,2.13c-13.15.64-26.86,3.92-39.15,10.54-8.94,4.59-14.19,11.96-12.79,17.94,1.23,5.26,7.27,8.36,16.59,8.5,11.72-.28,24.34-.99,36.94-2.85l-1.2,2.58Z"/>
  <path class="cls-6" d="M317.92,266.36c-9.64-.8-19.24.98-27.55,5.22l-.35-2.49c8.29-4.06,17.76-5.82,27.29-5.17l.61,2.44Z"/>
</svg>