<?xml version="1.0" encoding="UTF-8"?>
<svg id="Layer_1" data-name="Layer 1" xmlns="http://www.w3.org/2000/svg" viewBox="0 0 773.25 773.25">
  <defs>
    <style>
      .cls-1 {
        fill: #94ad8f;
      }

      .cls-2 {
        fill: #acbfa8;
      }

      .cls-3 {
        letter-spacing: 0em;
      }

      .cls-4 {
        fill: #bbcbb8;
      }

      .cls-5 {
        fill: #fff;
      }

      .cls-6 {
        fill: #d7e0d5;
      }

      .cls-7 {
        letter-spacing: 0em;
      }

      .cls-8 {
        fill: #8ca787;
      }

      .cls-9 {
        font-family: Manrope-Regular, Manrope;
        font-size: 25.74px;
        font-variation-settings: 'wght' 400;
      }

      .cls-9, .cls-10 {
        fill: #667c8c;
      }

      .cls-11 {
        fill: #c8d5c6;
      }

      .cls-12 {
        letter-spacing: -.02em;
      }

      .cls-13 {
        letter-spacing: -.04em;
      }

      .cls-14 {
        letter-spacing: -.03em;
      }

      .cls-15 {
        letter-spacing: -.03em;
      }

      .cls-16 {
        letter-spacing: 0em;
      }
    </style>
  </defs>
  <path class="cls-6" d="M395.04,215.07c24.21,2.71,52.43,14.15,63.44,43.72,0,0,2.52,7.42,3.65,11.29h-67.09v-55.01Z"/>
  <path class="cls-11" d="M389.22,315.44v30.66s-31.12-1.23-46.1-30.66h46.1Z"/>
  <path class="cls-8" d="M478.02,278.32v85.56c0,4.54-3.68,8.22-8.2,8.22h-77.35c-1.8,0-3.25-1.46-3.25-3.24v-53.14c0-.15-.13-.28-.28-.28h-76.27c-1.93,0-3.52-1.59-3.52-3.52v-89.41c0-11.25,9.12-20.37,20.36-20.37h64.91c1.93,0,3.52,1.59,3.52,3.52v52.85c0,.15.13.28.28.28h60.27c10.78,0,19.53,8.75,19.53,19.53Z"/>
  <g>
    <g>
      <path class="cls-8" d="M210.41,481.68v41.67c0,.96-.77,1.73-1.73,1.73h-5.44c-.96,0-1.73-.77-1.73-1.73v-33.8c0-.96-.77-1.73-1.73-1.73h-17.28c-.96,0-1.73.77-1.73,1.73v33.8c0,.96-.77,1.73-1.73,1.73h-5.5c-.96,0-1.73-.77-1.73-1.73v-41.67c0-.96.77-1.73,1.73-1.73h35.14c.96,0,1.73.77,1.73,1.73Z"/>
      <path class="cls-8" d="M248.54,515.93h-17.92c-.69,0-1.31.41-1.58,1.03l-3.12,7.09c-.28.63-.9,1.03-1.58,1.03h-5.8c-1.27,0-2.11-1.33-1.56-2.47l19.86-41.67c.29-.6.89-.99,1.56-.99h2.36c.67,0,1.27.38,1.56.98l19.92,41.67c.55,1.15-.29,2.48-1.56,2.48h-5.8c-.68,0-1.3-.4-1.58-1.02l-3.18-7.11c-.28-.62-.9-1.02-1.58-1.02ZM235.44,508.31h8.25c1.26,0,2.1-1.31,1.57-2.45l-4.14-9.03c-.62-1.35-2.53-1.34-3.15,0l-4.11,9.03c-.52,1.15.32,2.45,1.57,2.45Z"/>
      <path class="cls-8" d="M307.47,481.68v41.67c0,.96-.77,1.73-1.73,1.73h-5.44c-.96,0-1.73-.77-1.73-1.73v-33.8c0-.96-.77-1.73-1.73-1.73h-17.28c-.96,0-1.73.77-1.73,1.73v33.8c0,.96-.77,1.73-1.73,1.73h-5.5c-.96,0-1.73-.77-1.73-1.73v-41.67c0-.96.77-1.73,1.73-1.73h35.14c.96,0,1.73.77,1.73,1.73Z"/>
      <path class="cls-8" d="M345.6,515.93h-17.92c-.69,0-1.31.41-1.58,1.03l-3.12,7.09c-.28.63-.9,1.03-1.58,1.03h-5.8c-1.27,0-2.11-1.33-1.56-2.47l19.86-41.67c.29-.6.89-.99,1.56-.99h2.36c.67,0,1.27.38,1.56.98l19.92,41.67c.55,1.15-.29,2.48-1.56,2.48h-5.8c-.68,0-1.3-.4-1.58-1.02l-3.18-7.11c-.28-.62-.9-1.02-1.58-1.02ZM332.5,508.31h8.25c1.26,0,2.1-1.31,1.57-2.45l-4.14-9.03c-.62-1.35-2.53-1.34-3.15,0l-4.11,9.03c-.52,1.15.32,2.45,1.57,2.45Z"/>
      <path class="cls-8" d="M405.8,525.09h-5.7c-.69,0-1.31-.41-1.59-1.04l-11.41-26.12c-.6-1.38-2.57-1.38-3.17,0l-11.41,26.13c-.28.63-.9,1.04-1.59,1.04h-5.77c-1.26,0-2.1-1.31-1.57-2.45l19.21-41.67c.28-.61.9-1.01,1.57-1.01h2.2c.68,0,1.29.39,1.57,1.01l19.21,41.67c.53,1.15-.31,2.45-1.57,2.45Z"/>
      <path class="cls-8" d="M422.08,525.09h-5.76c-.96,0-1.73-.77-1.73-1.73v-41.67c0-.96.77-1.73,1.73-1.73h5.76c.96,0,1.73.77,1.73,1.73v41.67c0,.96-.77,1.73-1.73,1.73Z"/>
      <path class="cls-8" d="M467.08,487.89h-10.94c-.96,0-1.73.77-1.73,1.73v33.74c0,.96-.77,1.73-1.73,1.73h-5.76c-.96,0-1.73-.77-1.73-1.73v-33.74c0-.96-.77-1.73-1.73-1.73h-10.88c-.96,0-1.73-.77-1.73-1.73v-4.48c0-.96.77-1.73,1.73-1.73h34.5c.96,0,1.73.77,1.73,1.73v4.48c0,.96-.77,1.73-1.73,1.73Z"/>
      <path class="cls-8" d="M510.75,518.88v4.48c0,.96-.77,1.73-1.73,1.73h-34.44c-.96,0-1.73-.77-1.73-1.73v-1.83c0-.39.13-.77.37-1.07l13.27-16.86c.48-.62.5-1.48.02-2.11l-12.68-16.91c-.22-.3-.35-.66-.35-1.04v-1.85c0-.96.77-1.73,1.73-1.73h33.42c.96,0,1.73.77,1.73,1.73v4.48c0,.96-.77,1.73-1.73,1.73h-18.55c-1.43,0-2.24,1.63-1.38,2.77l8.18,10.83c.47.63.47,1.49-.02,2.11l-8.4,10.76c-.89,1.14-.08,2.79,1.36,2.79h19.18c.96,0,1.73.77,1.73,1.73Z"/>
      <path class="cls-8" d="M546.89,515.93h-17.92c-.69,0-1.31.41-1.58,1.03l-3.12,7.09c-.28.63-.9,1.03-1.58,1.03h-5.8c-1.27,0-2.11-1.33-1.56-2.47l19.86-41.67c.29-.6.89-.99,1.56-.99h2.36c.67,0,1.27.38,1.56.98l19.92,41.67c.55,1.15-.29,2.48-1.56,2.48h-5.8c-.68,0-1.3-.4-1.58-1.02l-3.18-7.11c-.28-.62-.9-1.02-1.58-1.02ZM533.8,508.31h8.25c1.26,0,2.1-1.31,1.57-2.45l-4.14-9.03c-.62-1.35-2.53-1.34-3.15,0l-4.11,9.03c-.52,1.15.32,2.45,1.57,2.45Z"/>
      <path class="cls-8" d="M603.08,518.88v4.48c0,.96-.77,1.73-1.73,1.73h-34.44c-.96,0-1.73-.77-1.73-1.73v-1.83c0-.39.13-.77.37-1.07l13.27-16.86c.48-.62.5-1.48.02-2.11l-12.68-16.91c-.22-.3-.35-.66-.35-1.04v-1.85c0-.96.77-1.73,1.73-1.73h33.42c.96,0,1.73.77,1.73,1.73v4.48c0,.96-.77,1.73-1.73,1.73h-18.55c-1.43,0-2.24,1.63-1.38,2.77l8.18,10.83c.47.63.47,1.49-.02,2.11l-8.4,10.76c-.89,1.14-.08,2.79,1.36,2.79h19.18c.96,0,1.73.77,1.73,1.73Z"/>
    </g>
    <g>
      <path class="cls-10" d="M205.07,451.59h-23.73c-.69,0-1.31.4-1.58,1.03l-4.67,10.6c-.28.63-.9,1.03-1.58,1.03h-2.61c-1.26,0-2.1-1.31-1.57-2.46l21.73-46.99c.28-.61.9-1,1.57-1h1.15c.67,0,1.29.39,1.57,1l21.8,46.99c.53,1.15-.31,2.46-1.57,2.46h-2.61c-.68,0-1.3-.4-1.58-1.02l-4.74-10.62c-.28-.62-.9-1.02-1.58-1.02ZM185.08,446.59h16.23c1.25,0,2.09-1.29,1.58-2.43l-8.14-18.39c-.61-1.37-2.56-1.37-3.16,0l-8.09,18.39c-.5,1.14.33,2.43,1.58,2.43Z"/>
      <path class="cls-10" d="M273.39,439.07c0,14.1-11.95,25.62-26.69,25.62s-26.62-11.52-26.62-25.62,11.95-25.62,26.62-25.62,26.69,11.52,26.69,25.62ZM267.09,439.07c0-11.02-9.09-19.97-20.4-19.97s-20.4,8.95-20.4,19.97,9.16,19.97,20.4,19.97,20.4-8.95,20.4-19.97ZM233.61,436.49h26.24c.96,0,1.73.77,1.73,1.73v1.55c0,.96-.77,1.73-1.73,1.73h-26.24c-.96,0-1.73-.77-1.73-1.73v-1.55c0-.96.77-1.73,1.73-1.73Z"/>
      <path class="cls-10" d="M312.2,451.59h-23.73c-.69,0-1.31.4-1.58,1.03l-4.67,10.6c-.28.63-.9,1.03-1.58,1.03h-2.61c-1.26,0-2.1-1.31-1.57-2.46l21.73-46.99c.28-.61.9-1,1.57-1h1.15c.67,0,1.29.39,1.57,1l21.8,46.99c.53,1.15-.31,2.46-1.57,2.46h-2.61c-.68,0-1.3-.4-1.58-1.02l-4.74-10.62c-.28-.62-.9-1.02-1.58-1.02ZM292.21,446.59h16.23c1.25,0,2.09-1.29,1.58-2.43l-8.14-18.39c-.61-1.37-2.56-1.37-3.16,0l-8.09,18.39c-.5,1.14.33,2.43,1.58,2.43Z"/>
      <path class="cls-10" d="M375.94,415.54v46.99c0,.96-.77,1.73-1.73,1.73h-.7c-.5,0-.98-.22-1.31-.6l-30.23-34.84c-1.05-1.21-3.04-.47-3.04,1.13v32.57c0,.96-.77,1.73-1.73,1.73h-2.7c-.96,0-1.73-.77-1.73-1.73v-46.99c0-.96.77-1.73,1.73-1.73h.7c.5,0,.98.22,1.31.59l30.3,34.85c1.05,1.21,3.03.46,3.03-1.13v-32.58c0-.96.77-1.73,1.73-1.73h2.62c.96,0,1.73.77,1.73,1.73Z"/>
      <path class="cls-10" d="M420.26,451.59h-23.73c-.69,0-1.31.4-1.58,1.03l-4.67,10.6c-.28.63-.9,1.03-1.58,1.03h-2.61c-1.26,0-2.1-1.31-1.57-2.46l21.73-46.99c.28-.61.9-1,1.57-1h1.15c.67,0,1.29.39,1.57,1l21.8,46.99c.53,1.15-.31,2.46-1.57,2.46h-2.61c-.68,0-1.3-.4-1.58-1.02l-4.74-10.62c-.28-.62-.9-1.02-1.58-1.02ZM400.27,446.59h16.23c1.25,0,2.09-1.29,1.58-2.43l-8.14-18.39c-.61-1.37-2.56-1.37-3.16,0l-8.09,18.39c-.5,1.14.33,2.43,1.58,2.43Z"/>
      <path class="cls-10" d="M478.49,460.77v1.77c0,.96-.77,1.73-1.73,1.73h-37.05c-.96,0-1.73-.77-1.73-1.73v-.4c0-.38.13-.75.36-1.05l16.09-20.97c.47-.62.48-1.47.01-2.09l-15.76-21.03c-.22-.3-.35-.66-.35-1.04v-.41c0-.96.77-1.73,1.73-1.73h36.47c.96,0,1.73.77,1.73,1.73v1.77c0,.96-.77,1.73-1.73,1.73h-25.88c-1.42,0-2.24,1.62-1.39,2.76l12.12,16.23c.46.62.46,1.46,0,2.08l-12.22,16.16c-.86,1.14-.05,2.77,1.38,2.77h26.21c.96,0,1.73.77,1.73,1.73Z"/>
      <path class="cls-10" d="M492.43,464.26h-2.77c-.96,0-1.73-.77-1.73-1.73v-46.99c0-.96.77-1.73,1.73-1.73h2.77c.96,0,1.73.77,1.73,1.73v46.99c0,.96-.77,1.73-1.73,1.73Z"/>
      <path class="cls-10" d="M557.35,439.07c0,14.1-11.88,25.62-26.69,25.62s-26.62-11.52-26.62-25.62,11.95-25.62,26.62-25.62,26.69,11.52,26.69,25.62ZM551.06,439.07c0-11.02-9.09-19.97-20.4-19.97s-20.4,8.95-20.4,19.97,9.16,19.97,20.4,19.97,20.4-8.95,20.4-19.97Z"/>
      <path class="cls-10" d="M604.87,460.77v1.77c0,.96-.77,1.73-1.73,1.73h-37.05c-.96,0-1.73-.77-1.73-1.73v-.4c0-.38.13-.75.36-1.05l16.09-20.97c.47-.62.48-1.47.01-2.09l-15.76-21.03c-.22-.3-.35-.66-.35-1.04v-.41c0-.96.77-1.73,1.73-1.73h36.47c.96,0,1.73.77,1.73,1.73v1.77c0,.96-.77,1.73-1.73,1.73h-25.88c-1.42,0-2.24,1.62-1.39,2.76l12.12,16.23c.46.62.46,1.46,0,2.08l-12.22,16.16c-.86,1.14-.05,2.77,1.38,2.77h26.21c.96,0,1.73.77,1.73,1.73Z"/>
    </g>
    <text class="cls-9" transform="translate(168.38 564.55)"><tspan x="0" y="0">Πα</tspan><tspan class="cls-15" x="33.48" y="0">ι</tspan><tspan class="cls-7" x="41.85" y="0">δοψυ</tspan><tspan class="cls-12" x="105.17" y="0">χ</tspan><tspan class="cls-13" x="118.23" y="0">ο</tspan><tspan class="cls-14" x="132.42" y="0">λ</tspan><tspan class="cls-12" x="145.24" y="0">όγ</tspan><tspan class="cls-7" x="172.51" y="0">ος – Ψυ</tspan><tspan class="cls-12" x="259.57" y="0">χ</tspan><tspan class="cls-3" x="272.62" y="0">οθεραπευτ</tspan><tspan class="cls-16" x="407.04" y="0">ή</tspan><tspan x="422.24" y="0">ς</tspan></text>
  </g>
  <g>
    <path class="cls-5" d="M452.11,312.41c-.21-.15-.45-.21-.7-.21h-37.88c-1.04,0-1.65,1.18-1.02,2.01.79,1.07,1.49,2.58,1.49,4.62s-.7,3.52-1.49,4.59c-.63.83-.02,2.01,1.02,2.01h37.88c.24,0,.49-.06.7-.19.92-.6,3.43-2.58,3.43-6.4s-2.51-5.82-3.43-6.42ZM451.75,337.69c0-1.26.28-2.32.66-3.19.24-.53.53-.99.83-1.39.63-.83.02-2.01-1.02-2.01h-37.88c-.24,0-.49.06-.7.19-.62.41-1.96,1.43-2.75,3.21-.41.88-.68,1.93-.68,3.19,0,3.86,2.51,5.82,3.44,6.42.21.13.45.19.7.19h37.88c1.04,0,1.65-1.18,1.02-2.01-.79-1.05-1.49-2.56-1.49-4.6Z"/>
    <path class="cls-5" d="M458.31,304.47c-.11.24-.26.47-.42.68-.88,1.2-2.28,1.9-3.73,1.9-.7,0-1.39-.15-2.04-.47l-19.51-9.66-18.94,9.62c-2.06,1.05-4.5.41-5.82-1.39-.16-.19-.29-.41-.41-.63-1.17-2.28-.24-5.07,2.03-6.24l23.09-11.72,23.66,11.7c2.3,1.13,3.22,3.92,2.09,6.21Z"/>
  </g>
  <path class="cls-8" d="M360.5,272.97c0,3.98-3.23,7.2-7.2,7.2s-7.19-3.22-7.19-7.2,3.22-7.19,7.19-7.19,7.2,3.22,7.2,7.19Z"/>
  <path class="cls-8" d="M368.52,286.83v11.25c0,.13-.01.26-.02.39-.2,1.79-1.71,3.19-3.56,3.19h-23.28c-1.85,0-3.36-1.4-3.56-3.19-.01-.13-.02-.26-.02-.39v-11.25c0-1.98,1.6-3.58,3.58-3.58h23.28c1.98,0,3.58,1.6,3.58,3.58Z"/>
  <circle class="cls-4" cx="412.15" cy="217.78" r="7.1"/>
  <circle class="cls-2" cx="435.88" cy="229.22" r="7.1"/>
  <circle class="cls-1" cx="453.01" cy="247.95" r="7.1"/>
  <path class="cls-5" d="M363.46,228.32c0,.35-.02.71-.06,1.08-.03.32-.07.61-.14.92,0,.06,0,.13-.03.18-.09.4-.18.79-.32,1.16-.08.26-.17.53-.28.76-.13.32-.27.62-.44.92,0,.02-.02.04-.04.06-.31.57-.68,1.12-1.1,1.62-.2.26-.42.51-.68.75-.23.25-.48.47-.75.68-.53.45-1.08.82-1.67,1.14,0,.02-.04.03-.07.04-.57.31-1.18.57-1.81.75h-.03c-.3.1-.61.18-.92.24-.04.02-.11.02-.14.03-2.21.43-4.32.16-6.17-.62-.64-.27-1.24-.6-1.79-.98-.57-.38-1.1-.81-1.56-1.29-1.9-1.9-3.09-4.53-3.09-7.45,0-5.81,4.72-10.54,10.55-10.54,3.78,0,7.09,1.98,8.94,4.98.31.47.57.96.78,1.46.53,1.25.82,2.65.82,4.1Z"/>
  <path class="cls-5" d="M368.21,274.03c6.73-5.53,8.8-11.42,9.3-15.57.23-1.95.13-3.51,0-4.47v-1.37c0-.97-.14-1.91-.42-2.8-.09-.3-.18-.6-.32-.88-.48-1.12-1.18-2.15-2.03-3-.41-.43-.9-.82-1.39-1.17-1.53-1.01-3.34-1.6-5.29-1.6h-29.8c-5.22,0-9.44,4.22-9.44,9.44v.28s-.75,2.79,0,6.82,3.04,9.32,9.11,14.31c1.61,1.32,2.13,3.6.44,4.81-.3.21-.61.39-.96.55-1.65.75-3.74.82-5.23-.24-1.32-.96-2.45-1.94-3.37-2.95v15.74c0,1.94,1.56,3.5,3.48,3.5h7.63c0-.11-.02-.23-.02-.34v-9.87c0-1.74,1.4-3.14,3.14-3.14h20.42c1.74,0,3.14,1.4,3.14,3.14v9.87c0,.11,0,.23-.02.34h7.42c1.93,0,3.49-1.56,3.49-3.5v-15.95c-.96,1.08-2.14,2.13-3.56,3.16-1.46,1.06-3.59.99-5.24.24-.32-.16-.63-.34-.93-.55-1.69-1.21-1.18-3.5.42-4.81ZM353.27,279.41c-3.48,0-6.31-2.82-6.31-6.31s2.82-6.31,6.31-6.31,6.31,2.82,6.31,6.31-2.83,6.31-6.31,6.31Z"/>
</svg>