<?xml version="1.0" encoding="UTF-8"?>
<svg id="Layer_1" data-name="Layer 1" xmlns="http://www.w3.org/2000/svg" viewBox="0 0 773.25 773.25">
  <defs>
    <style>
      .cls-1, .cls-2 {
        font-family: Baskerville, Baskerville;
        font-size: 73.38px;
      }

      .cls-1, .cls-3 {
        fill: #8ca787;
      }

      .cls-2, .cls-4 {
        fill: #667c8c;
      }

      .cls-5 {
        fill: #fff;
      }
    </style>
  </defs>
  <text class="cls-1" transform="translate(283.02 448.19)"><tspan x="0" y="0">Σάκης </tspan></text>
  <text class="cls-2" transform="translate(202.22 521.87)"><tspan x="0" y="0">Παπαλίτσας</tspan></text>
  <g>
    <rect class="cls-3" x="332.79" y="222.82" width="107.67" height="143.58" rx="15.28" ry="15.28"/>
    <g>
      <path class="cls-5" d="M385.45,304.05l-24.43,29.37c-4.02,4.82-7.46,8.98-10.32,12.5-.39.46-.77.93-1.14,1.37-.11-3.38-.16-7.46-.16-12.26v-71.57c0-.94,0-1.84.01-2.72l36.04,43.31Z"/>
      <path class="cls-5" d="M425.6,263.46v71.57c0,4.12-.03,7.73-.11,10.82-1.3,2.64-2.72,5.01-4.25,7.12-4.47,6.12-9.2,10.21-14.15,12.21-4.96,1.93-11.27,2.9-18.95,2.9h-18.51c-11.19,0-16.79-3.69-16.79-11.08,0-2.3.83-4.82,2.48-7.54.79-1.36,2.05-3.17,3.82-5.44,1.75-2.25,4-5.03,6.72-8.33l36.18-43.6-30.36-36.49c-4.66-5.52-7.6-9.26-8.84-11.2-1.22-2.07-1.82-3.97-1.82-5.7,0-4.44,4.09-6.66,12.27-6.66h11.63c10.25,0,17.65.56,22.17,1.72,4.52,1.08,8.47,3.77,11.83,8.06,2.55,3.18,4.76,7.93,6.63,14.26.03,2.24.05,4.71.05,7.38Z"/>
    </g>
    <circle class="cls-4" cx="379.81" cy="353.1" r="3.95"/>
    <circle class="cls-4" cx="392" cy="341.83" r="6.22"/>
    <circle class="cls-4" cx="407.15" cy="328.89" r="8.03"/>
  </g>
</svg>